<svg width="110" height="80" viewBox="0 0 110 80" fill="none" xmlns="http://www.w3.org/2000/svg">
<g clip-path="url(#clip0_47_1224)">
<path d="M51.9291 23.751L50.2274 22.5403L51.9291 23.751Z" fill="#DE3B3B"/>
<path d="M51.4445 20.843L50.2162 22.5403L51.4445 20.843Z" fill="#DE3B3B"/>
<path d="M45.8324 23.2645L47.0608 21.5672L45.8324 23.2645Z" fill="#DE3B3B"/>
<path d="M60.2571 19.4286L59.0175 21.1146L60.7079 22.348L59.0175 21.1146L60.2571 19.4286Z" fill="#DE3B3B"/>
<path d="M38.4285 23.0721L39.9836 24.215L38.4285 23.0721Z" fill="#DE3B3B"/>
<path d="M60.5952 3.43987C55.8508 -2.5573 48.1088 0.577071 45.9338 3.15699C43.1953 6.3932 40.5583 14.959 38.8341 21.5106C48.1877 20.0622 57.868 18.2631 67.0638 17.1089C64.9564 11.4851 62.5673 5.94058 60.5952 3.45119V3.43987Z" fill="white"/>
<path d="M109.177 35.768C109.177 35.768 109.177 35.6662 109.177 35.6096C109.177 35.4964 109.155 35.372 109.144 35.2588C109.144 35.2249 109.144 35.1909 109.132 35.1457C109.031 34.4101 108.828 33.686 108.524 32.9957C108.219 32.2942 107.814 31.6152 107.318 30.9703C107.318 30.9703 107.318 30.9703 107.307 30.9589C106.811 30.3253 106.236 29.7143 105.571 29.1372C105.549 29.1145 105.537 29.1032 105.515 29.0806C105.075 28.7072 104.602 28.3451 104.084 27.9943C104.061 27.983 104.05 27.9717 104.027 27.9604C103.802 27.8019 103.565 27.6548 103.329 27.5077C103.283 27.4851 103.238 27.4512 103.193 27.4285C102.934 27.2701 102.664 27.123 102.393 26.9646C102.111 26.8175 101.818 26.6704 101.525 26.5233C101.469 26.5007 101.413 26.4667 101.356 26.4441C101.12 26.3309 100.883 26.2178 100.635 26.1159C100.556 26.082 100.477 26.0481 100.41 26.0141C100.117 25.8896 99.8238 25.7765 99.5308 25.6633C99.5195 25.6633 99.497 25.652 99.4857 25.6407C99.1702 25.5162 98.8433 25.4031 98.5165 25.3012C98.4264 25.2673 98.3362 25.2447 98.2461 25.2107C97.9981 25.1315 97.7502 25.0523 97.491 24.9731C97.3896 24.9391 97.2882 24.9165 97.1868 24.8826C96.8487 24.7807 96.4993 24.6902 96.15 24.5997C95.6316 24.4639 95.0907 24.3507 94.5497 24.2376C94.392 24.2036 94.2342 24.181 94.0764 24.1471C93.6595 24.0679 93.2312 23.9886 92.8143 23.9208C92.6678 23.8981 92.5213 23.8755 92.386 23.8529C91.8451 23.7737 91.2929 23.6944 90.7407 23.6266C90.5829 23.6039 90.4139 23.5926 90.2561 23.57C89.8504 23.5247 89.4335 23.4795 89.0165 23.4455C88.8024 23.4229 88.577 23.4116 88.3516 23.3889C87.9459 23.355 87.5289 23.3324 87.1232 23.3097C86.8528 23.2984 86.5823 23.2758 86.3006 23.2645C85.8498 23.2418 85.399 23.2305 84.9483 23.2192C84.6553 23.2192 84.351 23.2192 84.0467 23.2079C83.7537 23.2079 83.4607 23.2079 83.1677 23.2079C82.8409 23.2079 82.5028 23.2079 82.176 23.2079C81.9619 23.2079 81.7478 23.2079 81.5336 23.2192C80.8237 23.2305 80.1024 23.2531 79.3699 23.2871C79.2009 23.2871 79.0431 23.2984 78.8741 23.3097C78.4346 23.3324 77.9838 23.355 77.5443 23.3776C77.4429 23.3776 77.3415 23.3889 77.24 23.4002C75.8201 23.4908 74.3776 23.6039 72.9239 23.7397C72.1237 23.8189 71.3236 23.8981 70.5122 23.9887C70.208 24.0226 69.9037 24.0452 69.5994 24.0905C60.4487 25.1315 50.7345 26.9193 41.2796 28.4356C40.9753 28.4809 40.671 28.5374 40.3668 28.5827C39.8484 28.6619 39.3187 28.7524 38.8003 28.8316C38.3045 28.9109 37.8086 28.9787 37.3128 29.058C37.2226 29.0693 37.1325 29.0806 37.0536 29.1032C36.7493 29.1485 36.4563 29.1937 36.152 29.239C35.2956 29.3635 34.4278 29.4879 33.5826 29.6124C33.3009 29.6464 33.0304 29.6916 32.76 29.7256C32.1289 29.8161 31.4978 29.8953 30.878 29.9745C30.5624 30.0198 30.2469 30.0537 29.9314 30.099C29.3115 30.1782 28.703 30.2461 28.0832 30.314C27.8014 30.3479 27.531 30.3819 27.2492 30.4045C26.3702 30.5063 25.5025 30.5969 24.6348 30.6761C24.2741 30.71 23.9248 30.744 23.5754 30.7892C23.474 30.7892 23.3726 30.8118 23.2712 30.8232C23.0232 30.8571 22.7753 30.8797 22.5274 30.9137C22.4147 30.925 22.3133 30.9363 22.2006 30.9589C21.9527 30.9929 21.716 31.0268 21.4681 31.0608C21.3779 31.0721 21.2878 31.0834 21.1976 31.0947C20.9159 31.14 20.6341 31.1739 20.3637 31.2192C20.3186 31.2192 20.2735 31.2305 20.2397 31.2418C19.2255 31.4116 18.2563 31.5926 17.3322 31.7963C17.028 31.8642 16.7237 31.9321 16.4194 32.0113C14.6501 32.4413 13.0612 32.9278 11.6187 33.4597C11.6187 33.4597 11.6187 33.4597 11.6074 33.4597C11.0327 33.6746 10.4917 33.8896 9.97336 34.1159C9.97336 34.1159 9.95082 34.1159 9.93955 34.1273C9.68035 34.2404 9.43243 34.3536 9.1845 34.4667C8.93658 34.5799 8.68865 34.7043 8.452 34.8175C8.22661 34.9307 8.01249 35.0438 7.79837 35.157C7.76457 35.1683 7.74203 35.1909 7.70822 35.2022C7.27998 35.4285 6.87429 35.6548 6.47986 35.8925C6.44605 35.9151 6.40098 35.9377 6.36717 35.9604C6.2094 36.0622 6.04036 36.1527 5.89386 36.2546C5.86005 36.2772 5.83751 36.2885 5.8037 36.3111C5.62339 36.4243 5.45435 36.5374 5.28531 36.6506C5.2515 36.6732 5.22897 36.6959 5.19516 36.7185C5.05993 36.809 4.92469 36.9109 4.78946 37.0014C4.74438 37.0353 4.71058 37.058 4.6655 37.0919C4.50773 37.2051 4.34996 37.3182 4.20346 37.4314C4.02315 37.5672 3.85411 37.7142 3.69634 37.8613C3.6738 37.884 3.66253 37.8953 3.63999 37.9179C3.43714 38.1103 3.24556 38.314 3.06525 38.5176C2.91875 38.6874 2.78352 38.8571 2.64829 39.0382C2.5694 39.1513 2.47925 39.2531 2.41163 39.3663C2.2764 39.57 2.16371 39.7737 2.05101 39.9886C1.9834 40.1018 1.91578 40.215 1.85943 40.3394C1.84816 40.3734 1.82563 40.4073 1.81436 40.4413C1.7242 40.6449 1.64532 40.8486 1.56643 41.0636C1.53262 41.1541 1.49881 41.2333 1.46501 41.3239C1.31851 41.7765 1.21708 42.2291 1.14946 42.693C1.14946 42.693 1.14946 42.693 1.14946 42.7044C1.09312 43.1117 1.05931 43.5191 1.07058 43.9377C1.07058 44.4356 1.12693 44.9335 1.22835 45.42C1.22835 45.454 1.23962 45.4993 1.25089 45.5332C1.49881 46.6987 2.00593 47.8189 2.77225 48.792C2.91875 48.9731 3.07652 49.1428 3.23429 49.3239C3.49349 49.5954 3.77522 49.8557 4.07949 50.1046C9.7367 54.5516 16.7237 58.1386 25.2771 60.2885C21.0511 55.4116 21.0286 46.8571 25.7504 46.3027C29.4017 45.8727 30.8442 47.2531 31.3964 48.5431C33.4248 42.727 38.5524 39.7623 38.5524 39.7623C38.4735 39.8642 38.3834 39.9773 38.3045 40.0905C42.7671 36.1075 48.83 33.652 55.5127 33.652C62.1955 33.652 68.4612 36.1867 72.9351 40.2828C74.4903 41.3804 77.9951 44.2772 79.4826 48.9391C79.9109 47.5587 81.2406 45.8161 85.2751 46.3027C88.2727 46.6534 89.3546 50.2178 88.6784 54.0198C102.934 48.5884 108.941 42.1838 109.234 36.6393C109.234 36.5261 109.234 36.4017 109.234 36.2885C109.234 36.2319 109.234 36.1754 109.234 36.1188C109.234 36.0056 109.234 35.8925 109.222 35.7793L109.177 35.768Z" fill="white"/>
<path d="M109.932 30.2687C109.808 30.2009 109.673 30.133 109.549 30.0764C109.662 29.8614 109.752 29.6577 109.842 29.454C109.775 28.9562 109.673 28.4356 109.549 27.9038C109.459 27.5304 109.358 27.1457 109.234 26.7496C108.941 26.7044 108.659 26.6704 108.388 26.6365C108.039 26.6139 107.69 26.6025 107.363 26.6139C107.385 25.9463 107.363 25.2221 107.262 24.5205C107.577 24.4979 107.893 24.4866 108.208 24.4866C107.532 23.4116 106.585 22.4045 105.447 21.4993C105.47 21.5785 105.492 21.6577 105.515 21.7369C105.718 22.348 105.887 22.9816 106.022 23.5926C105.312 23.7171 104.647 23.8642 103.982 24.0679C103.903 23.7284 103.802 23.4003 103.7 23.0608C103.599 22.7327 103.475 22.3932 103.362 22.0538C103.7 21.9519 104.038 21.8501 104.388 21.7482C104.737 21.6464 105.087 21.5672 105.436 21.488C103.182 19.6888 100.106 18.2291 96.3641 17.3013C88.16 15.2532 77.95 15.7284 67.0751 17.0976C57.8793 18.2518 48.1989 20.0509 38.8454 21.4993C33.8869 22.2687 29.0185 22.9477 24.3755 23.3777C13.9627 24.3395 7.62931 27.2136 3.79774 30.133C2.73842 30.9364 1.94957 31.9547 1.41991 33.0523C1.18325 33.5163 0.608515 34.7723 0.281704 36.5941C0.552168 36.4583 0.811363 36.3112 1.08183 36.1867C1.25087 36.1075 1.41991 36.0396 1.58895 35.983C1.75799 35.9151 1.92703 35.8586 2.09607 35.7907C2.18622 36.1414 2.29892 36.4809 2.41161 36.8091C2.53557 37.1372 2.65953 37.454 2.80604 37.7595C2.18622 38.0198 1.55514 38.348 0.957864 38.7214C0.664862 38.2009 0.428205 37.6351 0.202819 37.0467C0.045048 38.1103 -0.0338374 39.3437 0.078856 40.7242C0.270435 40.5658 0.450744 40.4074 0.642323 40.2603C0.755016 40.43 0.878979 40.5884 1.00294 40.7581C1.0931 40.8826 1.17198 41.0071 1.27341 41.1202C1.30721 41.1542 1.32975 41.1994 1.36356 41.2334C1.3861 41.256 1.39737 41.2786 1.41991 41.3013C1.45372 41.2108 1.48752 41.1315 1.52133 41.041C1.57768 40.8713 1.63402 40.7016 1.71291 40.5431C1.73545 40.4979 1.74672 40.4639 1.76926 40.4187C1.78053 40.3847 1.80306 40.3508 1.81433 40.3168C1.83687 40.2716 1.84814 40.2376 1.87068 40.1924C1.90449 40.1132 1.96084 40.0453 2.00591 39.9661C2.11861 39.7511 2.24257 39.5474 2.36653 39.3437C2.44542 39.2306 2.5243 39.1287 2.60319 39.0156C2.73842 38.8345 2.87365 38.6648 3.02015 38.4951C3.05396 38.4498 3.08777 38.4045 3.13285 38.3593C3.27935 38.2009 3.43712 38.0424 3.59489 37.8953C3.61743 37.8727 3.6287 37.8614 3.65124 37.8388C3.82028 37.6917 3.97805 37.5446 4.15836 37.4088C4.30486 37.2956 4.46263 37.1825 4.6204 37.0693C4.66548 37.0354 4.69928 37.0127 4.74436 36.9788C4.87959 36.8883 5.01483 36.7864 5.15006 36.6959C5.18387 36.6733 5.2064 36.6506 5.24021 36.628C5.40925 36.5149 5.58956 36.4017 5.7586 36.2885C5.79241 36.2659 5.81495 36.2546 5.84876 36.232C6.00653 36.1301 6.1643 36.0283 6.32207 35.9378C6.35588 35.9151 6.40095 35.8925 6.43476 35.8699C6.82919 35.6323 7.23489 35.4059 7.66312 35.1796C7.69693 35.1683 7.71947 35.1457 7.75328 35.1344C7.96739 35.0212 8.18151 34.9081 8.4069 34.7949C8.64355 34.6704 8.89148 34.5573 9.1394 34.4441C9.38733 34.331 9.63525 34.2178 9.89445 34.1047C9.89445 34.1047 9.91699 34.1047 9.92826 34.0934C10.4466 33.867 10.9988 33.6521 11.5623 33.4371C11.5623 33.4371 11.5623 33.4371 11.5736 33.4371C13.0161 32.9052 14.605 32.4187 16.3743 31.9887C16.6786 31.9208 16.9829 31.8416 17.2871 31.7737C18.2112 31.57 19.1804 31.389 20.1946 31.2192C20.2397 31.2192 20.2848 31.2079 20.3186 31.1966C20.5891 31.1513 20.8708 31.1061 21.1525 31.0721C21.2427 31.0608 21.3328 31.0495 21.423 31.0382C21.6596 31.0042 21.9076 30.9703 22.1555 30.9364C22.2682 30.925 22.3696 30.9137 22.4823 30.8911C22.7302 30.8571 22.9782 30.8345 23.2261 30.8006C23.3275 30.7893 23.4289 30.7779 23.5303 30.7666C23.8797 30.7327 24.229 30.6874 24.5897 30.6535C25.4461 30.5743 26.3251 30.4837 27.2042 30.3819C27.4859 30.348 27.7563 30.314 28.0381 30.2914C28.6466 30.2235 29.2664 30.1443 29.8863 30.0764C30.2018 30.0424 30.5173 29.9972 30.8329 29.9519C31.4527 29.8727 32.0838 29.7822 32.7149 29.703C32.9853 29.669 33.2671 29.6238 33.5375 29.5898C34.394 29.4653 35.2505 29.3409 36.1069 29.2164C36.4112 29.1711 36.7042 29.1259 37.0085 29.0806C37.0986 29.0693 37.1888 29.058 37.2677 29.0354C37.7635 28.9562 38.2594 28.8883 38.7552 28.8091C39.2736 28.7298 39.792 28.6506 40.3217 28.5601C40.6259 28.5149 40.9302 28.4583 41.2345 28.413C50.6895 26.8968 60.4036 25.1089 69.5543 24.0679C69.8586 24.0339 70.1629 24.0113 70.4671 23.9774C71.1771 23.8982 71.8871 23.819 72.5858 23.7511C72.6872 23.7511 72.7774 23.7397 72.8788 23.7284C74.3325 23.5926 75.775 23.4795 77.1949 23.389C77.2964 23.389 77.3978 23.3777 77.4992 23.3663C77.95 23.3437 78.3895 23.3211 78.829 23.2984C78.998 23.2984 79.1558 23.2871 79.3248 23.2758C80.0461 23.2419 80.7673 23.2192 81.4886 23.2079C81.7027 23.2079 81.9168 23.2079 82.1309 23.1966C82.469 23.1966 82.7958 23.1966 83.1226 23.1966C83.4156 23.1966 83.7086 23.1966 84.0016 23.1966C84.3059 23.1966 84.5989 23.1966 84.9032 23.2079C85.3539 23.2079 85.8047 23.2306 86.2555 23.2532C86.526 23.2645 86.8077 23.2758 87.0781 23.2984C87.4951 23.3211 87.9008 23.3437 88.3065 23.3777C88.5319 23.389 88.746 23.4116 88.9714 23.4342C89.3884 23.4682 89.8053 23.5134 90.211 23.5587C90.3688 23.5813 90.5378 23.5926 90.6956 23.6153C91.2478 23.6832 91.8 23.7511 92.3409 23.8416C92.4874 23.8642 92.6339 23.8868 92.7692 23.9095C93.1974 23.9774 93.6144 24.0566 94.0313 24.1358C94.1891 24.1697 94.3469 24.1924 94.5046 24.2263C95.0456 24.3395 95.5752 24.4526 96.1049 24.5884C96.4542 24.6789 96.8036 24.7695 97.1417 24.8713C97.2431 24.9052 97.3445 24.9279 97.4459 24.9618C97.7051 25.041 97.9531 25.1202 98.201 25.1994C98.2911 25.2334 98.3813 25.256 98.4714 25.29C98.7983 25.4031 99.1251 25.5163 99.4406 25.6294C99.4519 25.6294 99.4744 25.6407 99.4857 25.6521C99.79 25.7652 100.083 25.8897 100.365 26.0028C100.444 26.0368 100.522 26.0707 100.59 26.1047C100.838 26.2065 101.075 26.3197 101.311 26.4328C101.368 26.4554 101.424 26.4894 101.48 26.512C101.773 26.6591 102.066 26.8062 102.348 26.9533C102.63 27.1004 102.889 27.2588 103.148 27.4173C103.193 27.4399 103.238 27.4738 103.283 27.4965C103.52 27.6436 103.757 27.7907 103.982 27.9491C104.005 27.9604 104.016 27.9717 104.039 27.983C104.546 28.3338 105.03 28.6959 105.47 29.0693C105.492 29.0919 105.504 29.1033 105.526 29.1259C106.191 29.703 106.777 30.314 107.262 30.9477C107.262 30.9477 107.262 30.9477 107.273 30.959C107.712 31.5361 108.062 32.1358 108.355 32.7468C108.388 32.826 108.445 32.9052 108.479 32.9844C108.783 33.6747 108.986 34.3989 109.087 35.1344C109.087 35.1683 109.087 35.2023 109.098 35.2475C109.11 35.3607 109.121 35.4851 109.132 35.5983C109.132 35.6549 109.132 35.7001 109.132 35.7567C109.132 35.8699 109.132 35.983 109.144 36.0962C109.144 36.1528 109.144 36.2093 109.144 36.2659C109.144 36.3791 109.144 36.4922 109.144 36.6167C109.144 36.6167 109.583 35.5644 109.82 33.8218C109.91 33.1315 109.977 32.3395 109.955 31.4682C109.955 31.0835 109.932 30.6874 109.887 30.2687H109.932ZM5.16133 33.4031C5.10498 33.7426 5.0599 34.082 5.04863 34.4215C4.38374 34.331 3.68504 34.3423 2.96381 34.4441C2.93 33.7199 2.98635 32.9505 3.14412 32.1584C3.34696 32.1584 3.53854 32.1584 3.73012 32.1584C3.9217 32.1584 4.10201 32.1924 4.28232 32.215C4.64294 32.2603 4.99229 32.3055 5.34164 32.3621C5.27402 32.7129 5.21767 33.0637 5.16133 33.4031ZM8.64355 32.0792C7.98993 31.8868 7.31377 31.6832 6.62634 31.5361C6.80665 30.8458 7.02077 30.1782 7.25742 29.4767C7.96739 29.6803 8.64355 29.8614 9.30844 30.099C9.06052 30.744 8.8464 31.4342 8.64355 32.0792ZM12.6216 30.314C12.3061 30.1669 11.9905 30.0198 11.675 29.884C11.3595 29.7482 11.0327 29.6124 10.7058 29.4767C10.9763 28.8204 11.2806 28.1867 11.6074 27.5417C12.261 27.8133 12.9146 28.1301 13.5457 28.4356C13.2189 29.0693 12.9034 29.6803 12.6216 30.3253V30.314ZM16.7913 29.024C16.2053 28.6733 15.5967 28.3112 14.9769 27.983C15.3263 27.372 15.6869 26.7723 16.07 26.1612C16.3856 26.331 16.6899 26.512 16.9941 26.6931C17.2984 26.8741 17.6027 27.0665 17.8957 27.2475C17.5125 27.8472 17.1406 28.4243 16.7913 29.024ZM21.0962 28.1414C20.5327 27.7341 19.958 27.3267 19.372 26.942C19.7664 26.3536 20.1834 25.7992 20.6116 25.2221C21.1976 25.6181 21.7723 26.0255 22.3358 26.4554C21.9076 27.0099 21.4906 27.5757 21.0849 28.1414H21.0962ZM25.4574 27.5757C24.9277 27.1344 24.3755 26.6931 23.8234 26.2631C24.2629 25.7199 24.7136 25.1768 25.1757 24.6337L26.7872 25.9576L25.4574 27.5757ZM29.8975 27.1004L28.2522 25.7992L29.5482 24.1697L31.1935 25.4597L29.8975 27.1004ZM34.3151 26.5347L32.6472 25.2673L33.9094 23.604L35.5773 24.86L34.3151 26.5233V26.5347ZM38.7214 25.901L37.031 24.6563L38.2706 22.9816L38.4059 23.0835L39.961 24.2263L38.7214 25.9123V25.901ZM43.1165 25.2221L41.4148 24L42.6431 22.314L44.3448 23.5361L43.1165 25.2334V25.2221ZM47.5002 24.5092L45.7986 23.2871L47.0269 21.5898L48.7286 22.8119L47.5002 24.5205V24.5092ZM51.8953 23.7737L50.1936 22.5516L51.422 20.843L53.1236 22.0651L51.9065 23.7624L51.8953 23.7737ZM56.279 23.0608L54.5774 21.8388L55.8057 20.1414L57.5074 21.3748L56.279 23.0721V23.0608ZM60.6628 22.3706L58.9724 21.1259L60.212 19.4399L61.9024 20.6846L60.6515 22.3706H60.6628ZM65.0579 21.7256L63.3787 20.4583L64.6409 18.7949L66.32 20.0622L65.0466 21.7256H65.0579ZM69.4529 21.1598L67.7963 19.8699L69.0923 18.2291L70.7489 19.5304L70.0953 20.3451L69.4416 21.1598H69.4529ZM73.8592 20.6846C73.3183 20.2433 72.7774 19.7907 72.2364 19.3607C72.6759 18.8175 73.1267 18.2857 73.5775 17.7426C74.1184 18.1839 74.6593 18.6252 75.2003 19.0778C74.7495 19.6096 74.2987 20.1528 73.8592 20.6846ZM78.2768 20.3451C77.7584 19.8812 77.2287 19.4173 76.6991 18.9646C77.1611 18.4328 77.6232 17.9123 78.0965 17.3918C78.6261 17.8557 79.1558 18.3083 79.6742 18.7836C79.2009 19.2928 78.7388 19.8246 78.2768 20.3451ZM82.6831 20.1641C82.1873 19.6775 81.6689 19.1909 81.1617 18.727C81.6351 18.2065 82.1309 17.7199 82.6268 17.2108C83.1451 17.6973 83.6523 18.1726 84.1481 18.6704C83.6523 19.157 83.1677 19.6662 82.6831 20.1641ZM87.1007 20.1867C86.6274 19.6775 86.1428 19.157 85.6582 18.6591C86.1653 18.1726 86.6837 17.7086 87.2021 17.2334C87.698 17.7426 88.1713 18.2518 88.6446 18.7836C88.1149 19.2362 87.5965 19.7115 87.0894 20.1867H87.1007ZM91.4845 20.4922C91.0562 19.9491 90.6054 19.4173 90.1434 18.8741C90.6843 18.4328 91.2253 17.9915 91.7887 17.5502C92.0141 17.8218 92.2395 18.0934 92.4649 18.3762C92.6903 18.6591 92.9044 18.942 93.1185 19.2136C92.555 19.6436 92.0028 20.0509 91.4732 20.4922H91.4845ZM95.8119 21.1598C95.6203 20.8656 95.4287 20.5714 95.2372 20.2885C95.0343 20.0057 94.8315 19.7228 94.6286 19.4286C95.2033 19.0325 95.8006 18.6252 96.4092 18.2631C96.8149 18.8628 97.2093 19.4512 97.5924 20.0396C96.9839 20.4017 96.3979 20.7751 95.8232 21.1598H95.8119ZM101.92 21.4427C101.593 21.5785 101.266 21.7143 100.951 21.8501C100.635 21.9972 100.32 22.1443 100.015 22.2914C99.8688 21.9745 99.7111 21.6577 99.5533 21.3522C99.3955 21.0467 99.2265 20.7298 99.0575 20.4243C99.6773 20.1075 100.32 19.7794 100.985 19.4965C101.154 19.8246 101.323 20.1414 101.48 20.4583C101.582 20.6846 101.683 20.9109 101.785 21.1259C101.83 21.2277 101.886 21.3296 101.92 21.4314V21.4427Z" fill="#FF4545"/>
<path d="M70.4671 23.9887C70.1629 24.0226 69.8586 24.0452 69.5543 24.0792C69.8586 24.0452 70.1629 24.0113 70.4671 23.9774V23.9887Z" fill="#A08440"/>
<path d="M72.5745 23.7624C71.8758 23.8303 71.1658 23.9095 70.4559 23.9887C71.2673 23.8982 72.0674 23.819 72.8675 23.7397C72.7661 23.7397 72.6759 23.7511 72.5745 23.7624Z" fill="#A08440"/>
<path d="M37.2677 29.0467C37.1775 29.058 37.0874 29.0693 37.0085 29.092C37.0986 29.0806 37.1888 29.0693 37.2677 29.0467Z" fill="#A08440"/>
<path d="M49.416 66.4894C49.416 66.4894 49.3822 66.3876 49.371 66.331C49.2357 66.3763 49.0892 66.4215 48.9653 66.4668C49.123 66.4668 49.2695 66.4894 49.4273 66.5007L49.416 66.4894Z" fill="#9C7761"/>
<path d="M59.9979 66.4102C60.3924 66.3876 60.7755 66.3423 61.1587 66.3084C60.8431 66.1839 60.505 66.0255 60.1557 65.8444C60.1106 66.0368 60.0655 66.2291 59.9979 66.4102Z" fill="#9C7761"/>
<path d="M70.2643 67.1797C68.6303 72.215 62.3082 77.3183 54.9493 77.3183C47.5904 77.3183 41.381 71.9548 39.9949 66.8515C37.279 66.4894 34.2475 65.6068 31.9598 63.5927C31.9373 63.57 31.9148 63.5474 31.8922 63.5361C31.8359 63.4908 31.7908 63.4456 31.7457 63.4003C31.633 63.2985 31.5203 63.1966 31.4302 63.0948C31.4753 63.2532 31.5203 63.4229 31.5654 63.5814C34.6194 73.0863 44.0969 80.0113 55.3324 80.0113C66.568 80.0113 75.3355 73.5842 78.7276 64.6337C78.8065 64.43 78.8628 64.2263 78.9417 64.0113C76.4512 66.1273 73.1267 66.9307 70.2756 67.1797H70.2643Z" fill="#9C7761"/>
<path d="M45.3591 59.8699C49.1569 59.8699 52.2334 57.0184 52.2334 53.4993C52.2334 49.9802 49.1569 47.1287 45.3591 47.1287C41.5613 47.1287 38.4848 49.9802 38.4848 53.4993C38.4848 57.0184 41.5613 59.8699 45.3591 59.8699ZM42.1699 50.4555C42.3727 50.4555 42.5643 50.5007 42.7446 50.5799C43.4546 50.0368 44.3561 49.686 45.3591 49.686C47.6355 49.686 49.4837 51.3946 49.4837 53.4993C49.4837 55.604 47.6355 57.3126 45.3591 57.3126C43.0827 57.3126 41.2345 55.604 41.2345 53.4993C41.2345 53.1938 41.2796 52.8996 41.3585 52.6167C41.0542 52.3904 40.8514 52.0509 40.8514 51.6662C40.8514 50.9873 41.4374 50.4441 42.1699 50.4441V50.4555Z" fill="#9C7761"/>
<path d="M65.9707 59.8699C69.7684 59.8699 72.845 57.0184 72.845 53.4993C72.845 49.9802 69.7684 47.1287 65.9707 47.1287C62.1729 47.1287 59.0964 49.9802 59.0964 53.4993C59.0964 57.0184 62.1729 59.8699 65.9707 59.8699ZM62.7814 50.4555C62.9843 50.4555 63.1759 50.5007 63.3562 50.5799C64.0662 50.0368 64.9677 49.686 65.9707 49.686C68.2471 49.686 70.0952 51.3946 70.0952 53.4993C70.0952 55.604 68.2471 57.3126 65.9707 57.3126C63.6943 57.3126 61.8461 55.604 61.8461 53.4993C61.8461 53.1938 61.8912 52.8996 61.9701 52.6167C61.6658 52.3904 61.4629 52.0509 61.4629 51.6662C61.4629 50.9873 62.0489 50.4441 62.7814 50.4441V50.4555Z" fill="#9C7761"/>
<path d="M54.5661 51.7001C54.5661 47.0155 50.4641 43.2136 45.4042 43.2136C40.3442 43.2136 36.2422 47.0155 36.2422 51.7001C36.2422 56.3847 40.3442 60.1867 45.4042 60.1867C50.4641 60.1867 54.5661 56.3847 54.5661 51.7001ZM38.4961 53.5106C38.4961 49.9915 41.5726 47.14 45.3703 47.14C49.1681 47.14 52.2446 49.9915 52.2446 53.5106C52.2446 57.0297 49.1681 59.8812 45.3703 59.8812C41.5726 59.8812 38.4961 57.0297 38.4961 53.5106Z" fill="white"/>
<path d="M42.7446 50.5799C42.5755 50.5007 42.3839 50.4554 42.1698 50.4554C41.4373 50.4554 40.8513 50.9986 40.8513 51.6775C40.8513 52.0622 41.0542 52.4017 41.3584 52.628C41.5838 52.7977 41.8656 52.8996 42.1698 52.8996C42.9023 52.8996 43.4883 52.3564 43.4883 51.6775C43.4883 51.1909 43.1841 50.7836 42.7446 50.5799Z" fill="white"/>
<path d="M66.0158 43.2136C60.9559 43.2136 56.8538 47.0155 56.8538 51.7001C56.8538 56.3847 60.9559 60.1867 66.0158 60.1867C66.0609 60.1867 66.0947 60.1867 66.1398 60.1867C67.4357 60.1754 68.6641 59.9038 69.7685 59.4399C72.9577 58.116 75.1778 55.1513 75.1778 51.7001C75.1778 47.0155 71.0757 43.2136 66.0158 43.2136ZM65.9707 59.8812C62.1729 59.8812 59.0964 57.0297 59.0964 53.5106C59.0964 49.9915 62.1729 47.14 65.9707 47.14C69.7685 47.14 72.845 49.9915 72.845 53.5106C72.845 57.0297 69.7685 59.8812 65.9707 59.8812Z" fill="white"/>
<path d="M63.3562 50.5799C63.1872 50.5007 62.9956 50.4554 62.7815 50.4554C62.049 50.4554 61.463 50.9986 61.463 51.6775C61.463 52.0622 61.6658 52.4017 61.9701 52.628C62.1955 52.7977 62.4772 52.8996 62.7815 52.8996C63.514 52.8996 64.1 52.3564 64.1 51.6775C64.1 51.1909 63.7957 50.7836 63.3562 50.5799Z" fill="white"/>
<path d="M64.2352 67.0212C64.2352 67.0212 62.8942 67.0212 61.1587 66.3083C60.7755 66.3423 60.3924 66.3762 59.998 66.4102C59.4458 67.8472 57.8906 68.8883 54.5549 68.8883C51.2191 68.8883 49.8443 67.8812 49.4048 66.4894C49.247 66.4894 49.1005 66.4668 48.9427 66.4555C47.5679 66.8741 46.5875 66.8628 46.5875 66.8628C46.5875 66.8628 43.556 67.3154 39.9724 66.8402C41.3585 71.9434 47.4101 77.3069 54.9268 77.3069C62.4434 77.3069 68.6077 72.2037 70.2418 67.1683C66.9173 67.4625 64.2127 67.0099 64.2127 67.0099L64.2352 67.0212Z" fill="white"/>
<path d="M85.2187 46.2801C81.173 45.8048 79.8545 47.5361 79.4263 48.9166C79.8996 50.4102 80.17 52.0849 80.1024 53.9406C80.1024 53.9406 80.1024 53.9293 80.1024 53.918C80.0686 53.7709 79.708 52.1867 78.998 50.8062C78.6712 50.1726 78.2768 49.5729 77.8148 49.1994C76.2934 47.9434 75.1439 46.6874 75.1439 46.6874C75.1439 46.6874 73.7014 41.6408 72.135 39.7737C72.135 39.7737 72.428 39.9434 72.9013 40.2716C68.4161 36.1754 62.2743 33.6407 55.4789 33.6407C48.6835 33.6407 42.7333 36.0962 38.2706 40.0792C36.8056 42.1499 35.5097 46.6874 35.5097 46.6874C35.5097 46.6874 34.3602 47.9434 32.8388 49.1994C32.4331 49.5389 32.0838 50.0255 31.7795 50.5799C31.5654 50.9647 31.3851 51.372 31.2273 51.7794C30.7765 52.9222 30.5512 53.9519 30.5512 53.9519C30.4723 51.9265 30.8103 50.116 31.3625 48.5205C30.7991 47.2306 29.3679 45.8501 25.7166 46.2801C20.9948 46.8345 21.006 55.389 25.2433 60.2659C26.7985 62.0538 28.9171 63.355 31.5879 63.5813C31.5316 63.4229 31.4978 63.2532 31.4527 63.0948C30.8329 62.4724 30.3821 61.8727 30.0778 61.2956C28.8946 59.1118 29.6834 57.29 30.6977 56.1924C31.3062 55.5361 31.9824 55.1287 32.3655 55.0495C33.1318 54.8911 34.0221 54.9137 34.7095 55.5021C35.1378 55.8642 35.4759 56.4526 35.6562 57.3352C35.7125 57.5955 35.735 57.8331 35.735 58.0368C35.7463 58.6252 35.5885 59.0325 35.3857 59.3041C35.1378 59.6323 34.6081 59.4399 34.6307 59.0325C34.6757 58.3989 34.5292 57.6181 33.6164 57.4823C32.0387 57.2447 31.1146 60.5036 34.101 61.7256C34.3151 61.8161 34.5405 61.884 34.7659 61.9519C35.0814 62.0651 35.397 62.1669 35.735 62.2574C38.1129 62.9137 40.8851 63.0382 43.4095 62.4385C44.2885 62.2235 45.1449 61.9406 45.9338 61.5446C48.0186 60.4922 49.8217 60.1641 51.2078 60.2772C50.836 60.877 50.4641 61.5559 50.1373 62.2574C49.6189 63.389 49.2583 64.5884 49.3146 65.6634C49.3259 65.8897 49.3597 66.116 49.4048 66.3197C49.416 66.3763 49.4386 66.4328 49.4498 66.4781C49.8893 67.8699 51.3318 68.877 54.5999 68.877C57.868 68.877 59.4795 67.8359 60.043 66.3989C60.1106 66.2178 60.167 66.0255 60.2008 65.8331C60.212 65.7652 60.2233 65.686 60.2346 65.6068C60.4374 64.2376 59.9867 62.6535 59.4007 61.3069C59.2767 61.0127 59.1415 60.7299 59.0062 60.4583C60.0092 60.232 61.3164 60.2886 62.8491 60.7751C63.5478 61.0014 64.2916 61.3069 65.0691 61.7143C68.1569 63.3437 72.2026 63.4456 75.4707 62.5516C75.9553 62.4159 76.4399 62.2688 76.8794 62.0877C79.8883 60.9109 79.0206 57.6407 77.4429 57.8444C76.5188 57.9689 76.3723 58.7497 76.3948 59.372C76.4174 59.7794 75.8764 59.9604 75.6398 59.6323C75.4144 59.3154 75.2679 58.8289 75.3468 58.1047C75.358 57.9576 75.3693 57.8218 75.4031 57.6634C75.9102 55.355 77.4879 55.14 78.7388 55.4342C79.0995 55.5135 79.7193 55.8982 80.294 56.4979C80.3616 56.5658 80.418 56.6337 80.4856 56.7129C81.7027 58.1613 82.4803 60.6733 79.4601 63.5474C84.7454 63.0608 87.8783 58.3649 88.6559 53.9746C89.332 50.1726 88.2502 46.6082 85.2525 46.2574L85.2187 46.2801ZM62.7251 39.785C63.3449 39.6266 63.9873 39.5474 64.6296 39.5361C65.272 39.5361 65.9143 39.604 66.5341 39.7171C67.785 39.9774 68.9796 40.43 70.084 41.0297C71.1884 41.6407 72.2139 42.3649 73.0929 43.2702C72.0336 42.6252 70.9405 42.0594 69.8248 41.5729C68.7091 41.0976 67.5597 40.7016 66.3876 40.4753C65.2156 40.249 64.0211 40.1924 62.8378 40.3734C61.6545 40.5545 60.5276 41.0071 59.4457 41.6181C60.336 40.7468 61.4742 40.0905 62.7251 39.785ZM41.0767 41.0297C42.1811 40.4187 43.3757 39.9661 44.6266 39.7171C45.2576 39.604 45.8887 39.5361 46.5311 39.5361C47.1734 39.5361 47.8158 39.6266 48.4356 39.785C49.6865 40.0905 50.8247 40.7468 51.715 41.6181C50.6331 41.0071 49.4949 40.5545 48.3229 40.3734C47.1509 40.1811 45.9451 40.249 44.7731 40.4753C43.601 40.7016 42.4516 41.0976 41.3359 41.5729C40.2202 42.0594 39.1384 42.6252 38.0678 43.2702C38.9355 42.3763 39.9723 41.6407 41.0767 41.0297ZM45.4041 60.198C40.3442 60.198 36.2422 56.3961 36.2422 51.7115C36.2422 47.0269 40.3442 43.2249 45.4041 43.2249C50.4641 43.2249 54.5661 47.0269 54.5661 51.7115C54.5661 56.3961 50.4641 60.198 45.4041 60.198ZM69.7684 59.4512C68.6528 59.9152 67.4357 60.1754 66.1397 60.198C66.0946 60.198 66.0608 60.198 66.0158 60.198C60.9558 60.198 56.8538 56.3961 56.8538 51.7115C56.8538 47.0269 60.9558 43.2249 66.0158 43.2249C71.0757 43.2249 75.1777 47.0269 75.1777 51.7115C75.1777 55.1627 72.9577 58.1273 69.7684 59.4512Z" fill="#ECC19C"/>
<path d="M78.7276 64.6337C78.8177 64.4187 78.8853 64.2037 78.9642 63.9887C78.9642 63.9887 78.9417 64 78.9304 64.0113C78.8628 64.215 78.7952 64.43 78.7163 64.6337H78.7276Z" fill="#ECC19C"/>
<path d="M42.1811 52.8996C41.8769 52.8996 41.5951 52.7978 41.3698 52.628C41.3021 52.9109 41.2458 53.2051 41.2458 53.5106C41.2458 55.6153 43.094 57.3239 45.3704 57.3239C47.6468 57.3239 49.4949 55.6153 49.4949 53.5106C49.4949 51.406 47.6468 49.6973 45.3704 49.6973C44.3674 49.6973 43.4658 50.0368 42.7559 50.5912C43.1954 50.7836 43.4997 51.2023 43.4997 51.6888C43.4997 52.3678 42.9137 52.9109 42.1811 52.9109V52.8996Z" fill="black"/>
<path d="M62.7928 52.8996C62.4885 52.8996 62.2068 52.7978 61.9814 52.628C61.9138 52.9109 61.8574 53.2051 61.8574 53.5106C61.8574 55.6153 63.7056 57.3239 65.982 57.3239C68.2584 57.3239 70.1066 55.6153 70.1066 53.5106C70.1066 51.406 68.2584 49.6973 65.982 49.6973C64.979 49.6973 64.0775 50.0368 63.3675 50.5912C63.807 50.7836 64.1113 51.2023 64.1113 51.6888C64.1113 52.3678 63.5253 52.9109 62.7928 52.9109V52.8996Z" fill="black"/>
<path d="M80.4518 56.7242C80.3842 56.645 80.3279 56.5771 80.2602 56.5092C79.6968 55.9095 79.077 55.5248 78.7051 55.4456C77.4654 55.1627 75.8765 55.3664 75.3694 57.6747C75.3355 57.8331 75.3243 57.9802 75.313 58.116C75.2341 58.8402 75.3806 59.3381 75.606 59.6436C75.8427 59.9718 76.3836 59.7907 76.3611 59.3834C76.3273 58.7497 76.485 57.9689 77.4091 57.8558C78.9868 57.6521 79.8658 60.9222 76.8456 62.0991C76.3949 62.2801 75.9216 62.4272 75.437 62.563C72.1689 63.4456 68.1232 63.3551 65.0354 61.7256C64.2578 61.3183 63.514 61.0128 62.8153 60.7865C61.2714 60.2999 59.9642 60.2433 58.9725 60.4696C59.1077 60.7412 59.2429 61.0241 59.3669 61.3183C59.9529 62.6761 60.4037 64.2603 60.2008 65.6181C60.2008 65.6974 60.1783 65.7652 60.167 65.8445C60.5051 66.0255 60.8432 66.1839 61.17 66.3084C62.9055 67.0099 64.2465 67.0213 64.2465 67.0213C64.2465 67.0213 66.9399 67.4739 70.2756 67.1797C73.138 66.9307 76.4625 66.1273 78.9417 64.0114C78.9417 64.0114 78.9643 64 78.9755 63.9887C78.9868 63.9774 79.0094 63.9661 79.0206 63.9548C79.1671 63.8303 79.3136 63.6945 79.4376 63.5701C82.4578 60.6846 81.6802 58.1726 80.4631 56.7355L80.4518 56.7242Z" fill="black"/>
<path d="M45.8888 61.5559C45.0999 61.9519 44.2434 62.2348 43.3644 62.4498C40.8401 63.0495 38.0791 62.925 35.69 62.2687C35.3519 62.1782 35.0364 62.0764 34.7208 61.9632C34.4955 61.884 34.2701 61.8161 34.0559 61.7369C31.0583 60.5035 31.9937 57.256 33.5714 57.4936C34.4842 57.6294 34.6307 58.4102 34.5856 59.0439C34.5631 59.4512 35.0927 59.6436 35.3407 59.3154C35.5435 59.0439 35.7013 58.6365 35.69 58.0481C35.69 57.8331 35.6675 57.6068 35.6111 57.3465C35.4308 56.4526 35.0927 55.8755 34.6645 55.5134C33.9771 54.925 33.0868 54.8911 32.3205 55.0608C31.9373 55.14 31.2499 55.5474 30.6526 56.2037C29.6384 57.3126 28.8495 59.1231 30.0328 61.3069C30.3483 61.884 30.7878 62.4837 31.4077 63.1061C31.5091 63.2079 31.6218 63.3098 31.7232 63.4116C31.7683 63.4569 31.8246 63.5021 31.8697 63.5474C31.8922 63.57 31.9148 63.5927 31.9373 63.604C34.225 65.6181 37.2564 66.5007 39.9724 66.8628C43.556 67.3381 46.5875 66.8854 46.5875 66.8854C46.5875 66.8854 47.5679 66.8854 48.9427 66.4781C49.078 66.4328 49.2132 66.3989 49.3484 66.3423C49.2921 66.1273 49.2696 65.9123 49.2583 65.686C49.2019 64.611 49.5626 63.4116 50.0809 62.2801C50.4078 61.5672 50.7796 60.8883 51.1515 60.2999C49.7654 60.1867 47.9623 60.5149 45.8775 61.5672L45.8888 61.5559Z" fill="black"/>
<path d="M46.5311 39.5361C45.8887 39.5361 45.2464 39.604 44.6266 39.7171C43.3757 39.9774 42.1811 40.43 41.0767 41.0297C39.9723 41.6407 38.9468 42.3649 38.0678 43.2702C39.1271 42.6252 40.2203 42.0594 41.3359 41.5729C42.4516 41.0976 43.6011 40.7016 44.7731 40.4753C45.9451 40.2489 47.1396 40.1924 48.3229 40.3734C49.5062 40.5545 50.6331 41.0071 51.715 41.6181C50.8247 40.7468 49.6865 40.0905 48.4356 39.785C47.8158 39.6266 47.1734 39.5474 46.5311 39.5361Z" fill="black"/>
<path d="M66.3877 40.464C67.5597 40.6903 68.7091 41.0863 69.8248 41.5616C70.9405 42.0481 72.0223 42.6139 73.0929 43.2589C72.2252 42.365 71.1884 41.6294 70.084 41.0184C68.9796 40.4074 67.7851 39.9548 66.5342 39.7058C65.9031 39.5927 65.272 39.5248 64.6296 39.5248C63.9873 39.5248 63.3449 39.6153 62.7251 39.7737C61.4742 40.0792 60.336 40.7355 59.4457 41.6068C60.5276 40.9958 61.6658 40.5432 62.8378 40.3621C64.0098 40.1698 65.2156 40.2376 66.3877 40.464Z" fill="black"/>
<path d="M31.757 50.5686C32.05 50.0255 32.4106 49.5276 32.8163 49.1881C34.3377 47.9321 35.4871 46.6761 35.4871 46.6761C35.4871 46.6761 36.7831 42.1273 38.2481 40.0679C38.327 39.9547 38.4172 39.8416 38.4961 39.7397C38.4961 39.7397 33.3685 42.7044 31.34 48.5205C30.7766 50.116 30.4385 51.9151 30.5286 53.9519C30.5286 53.9519 30.754 52.9222 31.2048 51.7793C31.3626 51.3833 31.5429 50.976 31.757 50.5799V50.5686Z" fill="black"/>
<path d="M77.8035 49.1994C78.2656 49.5842 78.66 50.1726 78.9868 50.8062C79.6855 52.1867 80.0574 53.7709 80.0912 53.918V53.9406C80.1701 52.0849 79.8884 50.4102 79.4151 48.9166C77.9388 44.2546 74.4227 41.3466 72.8676 40.2603C72.3943 39.9321 72.1013 39.7624 72.1013 39.7624C73.6677 41.6294 75.1102 46.6761 75.1102 46.6761C75.1102 46.6761 76.2596 47.9321 77.781 49.1881L77.8035 49.1994Z" fill="black"/>
</g>
<defs>
<clipPath id="clip0_47_1224">
<rect width="110" height="80" fill="white"/>
</clipPath>
</defs>
</svg>
