<svg width="387" height="272" viewBox="0 0 387 272" fill="none" xmlns="http://www.w3.org/2000/svg">
<g clip-path="url(#clip0_13_208)">
<path d="M386.728 132.687C385.706 116.6 382.098 110.448 382.03 110.313C380.055 106.325 377.128 102.81 373.519 100.039C356.566 87.1284 332.123 79.1522 300.871 76.2457C287.799 75.029 273.365 73.2039 255.458 70.5002L254.028 70.2974C250.828 43.2596 246.471 25.0091 241.16 16.2218C237.279 9.80037 226.794 2.0946 214.879 0.337147C205.007 -1.14993 195.815 1.68904 188.189 8.51607C180.7 15.2755 169.806 30.8898 155.985 54.9534H155.644C155.168 54.8183 154.691 54.7507 154.214 54.6831C106.827 48.5996 74.2136 48.6672 48.5452 55.0886C25.8726 60.699 12.2555 68.7427 5.7873 80.4365L5.37878 81.4505C4.8341 82.194 2.92769 85.033 1.56597 92.7387C1.08937 95.5101 0.748944 98.1463 0.476601 100.918L0.340429 102.472C0.340429 103.216 0.204258 103.959 0.204258 104.703C0.0680859 106.866 0 109.232 0 111.8V113.355C0 115.991 0 118.965 0.136172 122.075C0.136172 123.021 0.136172 123.967 0.272343 124.981V125.59H0.408515C-0.408515 150.6 31.1152 175.272 86.3329 193.792C86.2648 194.063 86.1286 194.266 86.0605 194.536C84.9712 198.254 84.835 204.067 90.5542 210.556C94.7755 215.423 100.903 218.262 108.597 219.275L108.801 219.681C109.21 220.695 109.686 221.709 110.163 222.723C110.64 223.737 111.184 224.751 111.729 225.765L111.865 226.035C112.478 227.184 113.091 228.266 113.703 229.347C114.316 230.429 114.997 231.443 115.746 232.456C116.427 233.538 117.176 234.619 117.993 235.633C118.742 236.58 119.423 237.594 120.24 238.54C121.125 239.621 122.01 240.635 122.895 241.649L123.372 242.19C123.984 242.866 124.597 243.542 125.21 244.218C126.299 245.367 127.457 246.448 128.614 247.53L129.431 248.274C129.84 248.679 130.316 249.085 130.725 249.49C132.631 251.18 134.606 252.735 136.648 254.154C137.057 254.425 137.465 254.695 137.874 254.965L138.691 255.506C140.189 256.52 141.619 257.534 143.185 258.413C143.865 258.818 144.478 259.156 145.159 259.562L145.84 259.967C147.27 260.778 148.7 261.522 150.129 262.266C150.946 262.671 151.763 263.009 152.58 263.415L153.125 263.685C154.623 264.361 156.053 264.969 157.619 265.51C158.64 265.916 159.661 266.321 160.751 266.659C162.317 267.2 163.951 267.673 165.585 268.146L165.993 268.281C166.878 268.552 167.764 268.822 168.649 269.025C170.419 269.498 172.257 269.836 174.164 270.174L175.185 270.377C175.73 270.512 176.274 270.58 176.819 270.715C179.883 271.188 182.674 271.526 185.262 271.661C187.372 271.796 189.551 271.864 191.798 271.864C192.479 271.864 193.16 271.864 193.84 271.864C194.453 271.864 194.998 271.864 195.611 271.796H196.632C198.538 271.661 200.377 271.526 202.215 271.323C203.032 271.256 203.781 271.12 204.598 270.985L205.483 270.85C207.117 270.58 208.819 270.377 210.453 270.039C211.475 269.836 212.496 269.566 213.449 269.363H213.79C215.356 268.89 216.853 268.552 218.351 268.079C219.509 267.741 220.598 267.403 221.756 266.997C223.185 266.524 224.615 265.983 226.045 265.443C227.134 265.037 228.224 264.564 229.313 264.091C230.675 263.482 232.037 262.874 233.33 262.198L233.671 262.063C234.624 261.59 235.577 261.116 236.53 260.643C237.62 260.035 238.709 259.427 239.73 258.751L241.296 257.804C241.977 257.399 242.658 256.993 243.271 256.588C244.292 255.912 245.313 255.168 246.335 254.425L247.969 253.276C248.513 252.87 249.126 252.464 249.671 252.059C251.577 250.504 253.416 248.882 255.186 247.192C255.867 246.516 256.479 245.84 257.16 245.164L258.522 243.745C259.203 243.069 259.816 242.393 260.496 241.649C261.177 240.838 261.79 240.027 262.471 239.216L263.356 238.067C263.969 237.256 264.582 236.445 265.194 235.633C266.011 234.484 266.76 233.403 267.441 232.186C268.054 231.24 268.667 230.226 269.28 229.212C269.96 227.995 270.641 226.778 271.254 225.562C271.799 224.548 272.275 223.534 272.752 222.452C273.365 221.168 273.909 219.884 274.386 218.6C274.726 217.788 274.999 216.977 275.271 216.166C314.148 210.623 347.714 197.105 375.562 175.677C382.983 169.932 386.932 161.144 386.523 151.681H386.728V150.532C386.932 148.977 386.932 147.49 387 146.003V145.192C387 143.908 387.068 142.623 387.068 141.407C387.068 137.892 387 134.918 386.796 132.417L386.728 132.687ZM189.755 10.3411C196.836 3.98725 205.347 1.35106 214.47 2.70295C225.637 4.32522 235.441 11.5578 239.049 17.4385C244.088 25.7527 248.377 43.868 251.509 69.8918C247.288 69.2159 243.066 68.5399 238.777 67.864C237.415 67.6612 236.054 67.4584 234.624 67.188C228.7 66.2417 222.845 65.2954 217.058 64.2815C207.321 62.6592 197.381 61.0369 187.44 59.4823C183.9 58.9415 180.496 58.4684 177.023 57.9276C170.827 56.9813 164.564 56.035 158.504 55.2238C172.053 31.8362 182.538 16.695 189.755 10.2059V10.3411ZM109.482 217.112C102.061 216.301 96.2734 213.598 92.3244 209.069C88.3754 204.608 87.0137 199.808 88.3754 195.279C88.3754 195.077 88.5797 194.874 88.6478 194.671C88.9201 193.928 89.1925 193.116 89.601 192.508C91.0308 189.94 92.9372 188.385 93.6861 188.182C94.9798 187.776 96.0691 187.844 96.8181 188.385C97.9075 189.061 98.6564 190.683 98.9287 193.116C99.0649 193.995 98.9968 194.739 98.9287 195.415C98.9287 195.415 98.8607 195.415 98.7926 195.415C98.316 193.116 96.75 192.508 95.933 192.373C94.9117 192.17 93.8223 192.711 93.0053 193.657C92.5287 194.198 92.0521 194.874 91.7797 195.753C91.7797 195.82 91.7797 195.888 91.7116 195.955C90.6223 199.403 91.7116 203.932 95.8649 206.027C98.7926 207.446 102.265 208.393 105.805 208.663C109.278 208.934 112.682 208.596 115.814 207.649C118.129 206.973 120.308 205.959 122.282 204.675C122.418 204.608 122.555 204.54 122.623 204.472C123.644 203.796 124.733 203.256 125.755 202.782C126.572 202.377 127.321 202.039 128.138 201.836C127.933 202.309 128.001 202.85 127.865 203.323C127.661 204.067 127.457 204.81 127.389 205.689C127.321 207.244 127.457 209.001 127.933 210.894C128.206 212.11 128.614 213.26 129.295 214.544C125.55 216.572 122.623 216.707 122.35 216.775C122.35 216.775 116.495 217.991 109.618 217.315L109.482 217.112ZM196.904 144.246C214.675 145.462 228.156 159.657 226.998 176.015C226.317 185.478 220.802 193.522 212.836 198.389C217.466 194.671 220.53 189.331 221.007 183.248C221.892 171.013 211.747 160.401 198.402 159.454C185.057 158.508 173.551 167.701 172.666 179.936C171.849 191.359 180.7 201.295 192.751 203.323C174.981 202.107 161.5 187.912 162.657 171.554C163.815 155.264 179.134 143.029 196.904 144.313V144.246ZM177.772 136.405C177.772 136.405 177.636 135.729 177.908 135.526C181.449 132.552 185.738 130.592 190.164 129.78C192.411 129.375 194.726 129.24 197.04 129.375C199.219 129.51 201.466 129.916 203.781 130.456C208.138 131.673 212.292 133.498 216.105 135.999C220.19 138.568 223.594 141.474 226.249 144.651C226.454 144.922 226.454 145.26 226.249 145.53C226.113 145.665 225.909 145.733 225.705 145.733C225.568 145.733 225.5 145.733 225.364 145.598C221.756 143.097 218.079 140.866 214.402 138.906C210.181 136.743 206.368 135.256 202.76 134.309C198.538 133.16 194.385 132.755 190.572 133.093C186.76 133.363 182.811 134.512 178.589 136.54C178.317 136.675 177.908 136.54 177.704 136.27L177.772 136.405ZM198.198 200.349C190.232 199.808 184.172 193.387 184.649 186.087C185.194 178.786 192.07 173.244 200.036 173.852C208.002 174.393 214.062 180.814 213.585 188.114C213.109 195.415 206.164 200.957 198.198 200.349ZM179.474 204.27C183.628 205.148 187.985 206.906 192.343 209.474C205.96 217.45 224.411 217.315 236.598 213.665C243.747 211.57 246.13 206.365 245.381 202.107C244.769 198.794 242.181 196.564 239.39 196.767C236.054 196.969 234.147 199.268 234.011 202.985C234.011 203.12 233.943 203.188 233.807 203.188C233.807 203.188 233.466 203.256 233.33 203.053C232.445 201.701 232.377 199.673 233.126 197.105C235.373 189.94 240.547 189.804 244.496 190.886C245.654 191.224 247.696 192.643 249.467 194.739C250.352 195.82 251.101 196.969 251.713 198.118C253.756 202.444 254.301 209.136 245.245 216.572C245.177 216.639 245.109 216.707 244.973 216.775L244.496 217.112C244.02 217.518 243.475 217.924 242.93 218.329C242.658 218.532 242.318 218.667 241.977 218.87C234.011 224.21 223.458 227.049 210.385 227.319H209.909C199.492 227.319 174.708 221.506 167.083 219.613L169.261 217.856C169.261 217.856 169.261 217.856 169.33 217.856C170.419 216.842 171.372 215.558 172.325 214.409C172.938 213.665 173.551 213.057 174.164 212.313C176.002 209.88 177.772 207.176 179.338 204.202L179.474 204.27ZM234.76 124.914C234.692 124.508 234.76 124.238 234.896 124.035C235.1 123.765 235.373 123.562 235.713 123.494C235.781 123.494 235.917 123.494 235.986 123.494C236.19 123.494 236.326 123.494 236.462 123.562C257.16 132.822 264.922 149.18 266.897 154.25C266.897 154.52 267.101 154.79 267.169 154.993C264.99 157.089 257.909 164.794 249.739 184.126L247.833 164.186C247.833 163.713 247.628 163.24 247.356 162.767L238.096 148.166C238.096 148.166 238.028 147.896 237.96 147.896L234.556 124.981L234.76 124.914ZM146.725 225.089C151.014 225.629 154.895 225.089 158.3 223.804C160.274 223.061 162.112 222.114 163.815 220.965C163.951 221.168 164.087 221.506 164.359 221.574C165.653 221.912 195.202 229.347 208.615 229.82C203.236 241.176 187.372 252.194 169.33 250.91C148.836 249.49 133.448 232.456 133.584 218.6C137.193 222.182 142.231 224.48 146.725 225.089ZM134.742 194.063C128.546 193.657 123.916 188.723 124.325 183.045C124.733 177.367 130.044 173.176 136.172 173.582C142.368 173.987 146.997 178.922 146.589 184.6C146.453 186.087 146.044 187.439 145.363 188.655C142.027 189.872 138.555 191.629 135.491 194.063C135.219 194.063 135.014 194.063 134.742 194.063ZM152.58 186.695C151.9 186.83 151.219 186.965 150.538 187.168C151.559 185.276 152.172 183.18 152.308 180.949C152.989 171.554 145.159 163.307 134.878 162.631C128.478 162.158 122.623 164.794 118.946 169.053C116.767 171.621 115.337 174.866 115.065 178.381C114.793 182.572 116.223 186.492 118.81 189.669C121.601 193.116 125.755 195.617 130.589 196.429C124.938 196.023 119.899 193.86 115.95 190.683C110.299 186.087 106.827 179.327 107.371 171.959C107.712 166.687 110.095 162.023 113.635 158.441C118.537 153.439 125.823 150.397 133.789 150.938C147.474 151.884 157.891 162.834 157.006 175.407C156.734 179.665 155.1 183.518 152.58 186.763V186.695ZM104.648 202.039C104.852 203.256 105.125 204.472 105.397 205.689C105.397 205.824 105.465 206.027 105.533 206.162C102.401 205.892 99.3373 205.081 96.8181 203.864C93.6861 202.309 93.0734 199.065 93.8223 196.631C93.8223 196.564 93.8223 196.496 93.8904 196.429C94.2989 195.347 94.9117 194.604 95.4564 194.739C96.2053 194.874 96.5457 195.753 96.4777 197.24C96.4777 197.375 96.4777 197.442 96.4777 197.578C96.4096 198.659 96.9543 199.606 97.9075 199.876C98.7926 200.146 99.7458 199.876 100.29 198.93C100.359 198.794 100.427 198.592 100.495 198.389C101.788 198.794 103.082 199.132 104.444 199.538C104.58 200.349 104.58 201.16 104.716 201.971L104.648 202.039ZM272.071 218.059C271.594 219.343 271.05 220.56 270.505 221.777C270.029 222.79 269.552 223.804 269.075 224.751C268.463 225.967 267.85 227.116 267.169 228.266C266.624 229.212 266.011 230.158 265.399 231.105C264.65 232.254 263.969 233.335 263.22 234.417C262.675 235.228 262.062 235.971 261.45 236.715L260.565 237.864C259.952 238.675 259.339 239.419 258.658 240.162C258.045 240.838 257.433 241.514 256.82 242.122L255.458 243.542C254.845 244.218 254.233 244.826 253.62 245.502C251.918 247.124 250.079 248.747 248.241 250.234C247.764 250.639 247.22 251.045 246.675 251.383L245.041 252.6C244.088 253.343 243.135 254.019 242.113 254.695C241.501 255.101 240.888 255.506 240.207 255.844L238.641 256.79C237.62 257.399 236.598 258.007 235.509 258.615C234.624 259.089 233.671 259.562 232.786 260.035L232.445 260.17C231.151 260.779 229.858 261.454 228.564 261.995C227.475 262.468 226.454 262.874 225.364 263.279C224.002 263.82 222.641 264.293 221.211 264.767C220.122 265.105 219.032 265.443 217.943 265.78C216.513 266.186 215.015 266.592 213.517 266.93H213.177C212.224 267.268 211.202 267.47 210.249 267.673C208.683 268.011 207.049 268.214 205.415 268.484L204.53 268.619C203.781 268.755 203.032 268.822 202.283 268.89C200.445 269.093 198.675 269.16 196.836 269.295H195.747C195.202 269.363 194.657 269.431 194.045 269.431C191.117 269.431 188.325 269.431 185.67 269.228C183.083 269.025 180.428 268.755 177.432 268.281C176.887 268.214 176.41 268.079 175.866 268.011L174.776 267.808C173.006 267.47 171.168 267.132 169.398 266.659C168.512 266.456 167.695 266.186 166.81 265.983L166.402 265.848C164.836 265.375 163.27 264.902 161.704 264.429C160.683 264.091 159.661 263.685 158.708 263.347C157.21 262.806 155.78 262.198 154.351 261.522L153.806 261.252C152.989 260.914 152.172 260.508 151.423 260.17C149.993 259.494 148.631 258.751 147.202 257.94L146.453 257.534C145.84 257.196 145.159 256.858 144.546 256.452C143.048 255.574 141.619 254.56 140.189 253.613L139.304 253.073C138.895 252.802 138.555 252.6 138.146 252.329C136.172 250.91 134.265 249.355 132.427 247.8C132.018 247.462 131.61 247.057 131.201 246.651L130.384 245.84C129.227 244.759 128.138 243.745 127.048 242.596C126.435 241.987 125.891 241.311 125.278 240.635L124.801 240.095C123.916 239.081 123.031 238.134 122.214 237.053C121.465 236.107 120.784 235.16 120.035 234.214C119.286 233.2 118.537 232.186 117.857 231.105C117.176 230.091 116.495 229.077 115.882 228.063C115.269 227.049 114.657 225.9 114.044 224.886L113.908 224.615C113.363 223.669 112.818 222.655 112.342 221.641C112.001 220.898 111.661 220.154 111.388 219.411C112.342 219.411 113.295 219.546 114.18 219.546C119.082 219.546 122.623 218.802 122.691 218.802C122.827 218.802 126.776 218.6 131.542 215.693C131.542 215.693 131.542 215.625 131.61 215.625C131.406 216.504 131.406 217.924 131.406 217.924C130.861 232.93 147.406 251.586 169.398 253.14C170.419 253.14 171.372 253.208 172.393 253.208C190.777 253.208 206.572 241.446 211.543 229.617C225.228 229.279 236.394 226.17 244.632 220.289C245.245 219.816 245.79 219.411 246.335 218.938L246.539 218.735L258.045 215.693C263.969 214.611 269.62 213.26 274.318 211.57C274.046 212.381 273.841 213.192 273.569 214.003L272.684 216.572C272.548 216.977 272.411 217.383 272.207 217.856L272.071 218.059ZM374.064 174.055C346.761 195.077 314.012 208.325 276.02 213.868C276.292 213.124 276.497 212.381 276.701 211.637L276.905 210.759C277.926 206.838 277.518 202.444 277.926 198.321C302.982 187.236 309.723 146.138 290.182 142.421C274.25 139.446 269.824 147.152 268.599 151.951C265.467 144.651 257.16 130.186 237.552 121.466C236.871 121.196 236.122 121.061 235.373 121.196C234.964 121.264 234.556 121.466 234.215 121.669C223.049 115.721 210.317 111.8 196.632 110.854C164.427 108.623 135.287 122.683 118.469 145.395C119.763 144.111 121.193 142.894 122.759 141.745C125.55 139.717 128.546 138.23 131.678 137.351C133.38 136.878 135.014 136.675 136.58 136.54C138.282 136.54 139.985 136.675 141.551 137.081C144.751 137.824 147.814 139.649 150.334 142.285C150.538 142.556 150.606 142.894 150.334 143.164C150.129 143.435 149.721 143.502 149.448 143.299C146.453 141.542 143.729 140.46 141.006 140.122C138.282 139.717 135.423 139.987 132.427 140.798C129.84 141.542 127.116 142.691 124.121 144.381C121.465 145.936 118.878 147.693 116.291 149.721C116.154 149.856 116.018 149.856 115.814 149.856C115.678 149.856 115.542 149.788 115.406 149.653C114.384 151.275 113.363 152.898 112.41 154.588C112.41 151.14 110.708 143.502 97.2266 144.178C81.4307 144.922 83.0647 179.868 103.627 188.79C103.627 191.562 103.763 194.333 103.967 197.037C103.014 196.767 102.061 196.496 101.107 196.158C101.244 195.144 101.244 194.063 101.107 192.846C100.699 189.737 99.6777 187.574 97.9755 186.425C96.5457 185.546 94.7755 185.343 92.801 185.951C91.3031 186.425 88.852 188.588 87.1499 191.765C32.2727 173.379 1.15746 149.18 2.79152 124.914C2.79152 124.373 2.85961 123.832 2.92769 123.291C2.99578 122.683 3.13195 122.075 3.26812 121.466V121.128C3.40429 120.723 3.47238 120.317 3.60855 119.912C3.81281 119.236 4.01707 118.56 4.28941 117.951L4.49367 117.411C4.49367 117.411 4.69792 116.87 4.76601 116.6C5.17452 115.586 5.65113 114.572 6.2639 113.558C6.46816 113.22 6.60433 112.949 6.80859 112.611L7.08093 112.206C7.48944 111.598 7.82987 110.989 8.30647 110.381C8.57882 109.975 8.91925 109.57 9.39585 109.029C9.80436 108.488 10.281 107.947 10.7576 107.407C11.1661 106.934 11.5746 106.528 11.9831 106.055C12.5278 105.514 13.0725 104.973 13.8214 104.297C14.2299 103.959 14.5704 103.554 14.9789 103.216C15.6597 102.675 16.3406 102.067 17.0215 101.526L17.5662 101.12C17.5662 101.12 18.1108 100.715 18.3832 100.512C19.5406 99.701 20.7662 98.8222 21.9917 98.0787C22.196 97.9435 22.4683 97.8083 22.6726 97.6731L23.2173 97.3352C24.1705 96.7944 25.1237 96.186 26.145 95.6453C26.6897 95.3749 27.1663 95.1045 27.9152 94.7666C28.8003 94.2934 29.6854 93.8878 30.6386 93.4147C31.3195 93.1443 31.9323 92.8063 32.6131 92.5359C33.5663 92.1304 34.5195 91.7248 35.5408 91.3193C36.2217 91.0489 36.9025 90.7785 37.5834 90.5757C38.6728 90.1701 39.8302 89.8322 40.9196 89.4266L41.6685 89.1562C42.0771 89.021 42.4175 88.8858 42.826 88.8183C44.4601 88.3451 46.1622 87.8719 47.9324 87.3988H48.0686C48.0686 87.3988 48.1367 87.3988 48.2048 87.3312H48.5452C52.0176 86.3849 55.7623 85.6413 60.1198 84.9654C61.0049 84.8302 61.9581 84.695 62.8432 84.5598L64.1369 84.4246C67.405 83.9515 70.0603 83.6811 72.7157 83.4107C74.2817 83.2755 75.8476 83.1403 77.4136 83.0727C80.2732 82.8699 83.2009 82.7347 86.1286 82.6672H87.2861C88.4435 82.5996 89.601 82.532 90.7584 82.532C94.2308 82.532 97.7713 82.532 101.312 82.5996H102.81C103.354 82.5996 103.967 82.5996 104.512 82.5996C109.005 82.7348 113.771 83.0051 118.674 83.3431C119.491 83.3431 120.308 83.4783 121.125 83.5459L122.827 83.6811C126.367 83.9515 129.84 84.2218 133.448 84.5598C135.287 84.7626 137.125 84.9654 138.963 85.1006L140.121 85.2357L141.074 85.3709L142.504 85.5061C143.934 85.6413 145.431 85.8441 146.861 85.9793C154.078 86.858 160.615 87.6692 166.878 88.5479L167.968 88.6831C175.253 89.697 182.538 90.8461 189.891 91.9952C192.411 92.4008 194.93 92.8063 197.449 93.2119C202.419 94.023 207.458 94.8342 212.428 95.6453C221.415 97.1324 230.334 98.5518 239.254 99.9713L244.973 100.85C244.973 100.85 245.109 100.85 245.245 100.85H245.45C248.513 101.391 251.577 101.864 254.641 102.27L255.662 102.405C255.867 102.405 256.071 102.405 256.275 102.472L257.024 102.608C257.841 102.743 258.658 102.81 259.475 102.945C259.952 102.945 260.36 103.081 260.837 103.148L263.628 103.554C266.011 103.892 268.394 104.23 270.777 104.568C273.501 104.973 276.224 105.311 278.948 105.649L281.807 105.987C283.373 106.19 284.939 106.393 286.437 106.596C291.339 107.136 296.242 107.677 301.008 108.15H301.825C332.804 111.057 357.042 118.898 373.791 131.538C374.608 132.146 375.289 132.957 376.038 133.633C376.787 134.377 377.672 134.985 378.353 135.864C378.557 136.067 378.694 136.337 378.83 136.608C378.898 136.743 378.966 136.81 379.034 136.945C379.238 137.216 379.374 137.486 379.579 137.757L379.987 138.365C380.6 139.176 381.145 139.987 381.553 140.866C381.894 141.542 382.166 142.285 382.37 142.961L382.643 143.773C382.643 143.773 382.847 144.381 382.983 144.651C383.187 145.192 383.391 145.665 383.528 146.206C383.732 147.085 383.868 148.031 383.936 148.977V149.653H384.004C385.162 159.049 381.417 168.039 374.064 173.717V174.055ZM384.617 142.759V142.556C384.277 141.745 383.936 140.934 383.596 140.122C383.391 139.784 383.187 139.446 382.983 139.109C382.643 138.5 382.302 137.892 381.894 137.351L381.485 136.743C381.485 136.743 381.145 136.27 381.008 135.999C380.736 135.526 380.464 135.053 380.055 134.647C378.557 132.89 376.923 131.268 375.153 129.916C358.064 117.005 333.416 109.029 301.961 106.19H301.144V106.122C296.378 105.649 291.544 105.176 286.641 104.568C285.144 104.365 283.578 104.162 282.012 103.959L280.105 103.689L279.084 103.554C276.361 103.216 273.637 102.878 270.914 102.472C268.531 102.134 266.148 101.796 263.833 101.458L262.675 101.323L260.088 100.918C260.088 100.918 260.088 100.918 260.02 100.918C258.658 100.715 257.228 100.512 255.867 100.309L255.05 100.174C251.781 99.701 248.513 99.1602 245.245 98.687L239.526 97.8083C230.607 96.3888 221.688 94.9017 212.7 93.4823C207.73 92.6711 202.692 91.86 197.721 91.0489C195.202 90.6433 192.683 90.2377 190.096 89.8322C182.742 88.6831 175.457 87.534 168.172 86.52L167.083 86.3848C160.751 85.5061 154.214 84.6274 146.997 83.8163L145.636 83.6135C145.091 83.5459 144.546 83.4783 144.002 83.4107L139.985 82.9375L139.031 82.8699C137.193 82.6672 135.355 82.4644 133.516 82.3292C129.908 81.9912 126.367 81.6532 122.895 81.3829L121.193 81.2477C120.376 81.1801 119.491 81.1125 118.674 81.0449C113.771 80.7069 109.005 80.5041 104.444 80.3014C103.831 80.3014 103.286 80.3014 102.673 80.3014H101.244C98.7245 80.2338 96.2053 80.1662 93.6861 80.1662C92.6648 80.1662 91.6436 80.1662 90.6223 80.1662C89.3967 80.1662 88.2393 80.1662 87.0818 80.2338H85.9243C82.9286 80.3689 80.0009 80.5041 77.1413 80.7069C75.5753 80.8421 73.9412 80.9097 72.3753 81.0449C69.7199 81.2477 66.9965 81.5857 63.7284 82.0588L62.5028 82.194C61.5496 82.3292 60.5964 82.4644 59.7113 82.5996C55.2857 83.2755 51.4729 84.0866 47.7963 84.9654L47.3878 85.1006C45.6175 85.5737 43.8473 86.0469 42.2132 86.52C41.8047 86.6552 41.3962 86.7904 40.9877 86.9256L40.2387 87.196C39.0813 87.534 37.9238 87.9395 36.8344 88.3451C36.0855 88.6155 35.4046 88.8858 34.7238 89.1562C33.7025 89.5618 32.6812 89.9674 31.728 90.3729C31.0471 90.6433 30.3663 90.9813 29.6854 91.2517C28.7322 91.7248 27.779 92.1304 26.8258 92.6035L26.145 92.9415C25.7365 93.1443 25.3279 93.3471 24.9875 93.5499C23.9662 94.0906 22.9449 94.699 21.9917 95.2397L21.5151 95.5101C21.5151 95.5101 20.9704 95.7805 20.7662 95.9833C19.4726 96.7944 18.1789 97.6731 17.0215 98.5518C16.7491 98.7546 16.4087 99.025 16.1363 99.2278L15.6597 99.6334C14.9108 100.174 14.2299 100.782 13.5491 101.391C13.1406 101.729 12.7321 102.134 12.1193 102.675C11.5065 103.216 10.9618 103.757 10.4171 104.365C9.94053 104.838 9.53202 105.311 9.1235 105.784C8.57882 106.325 8.10222 106.934 7.55753 107.677C7.2171 108.083 6.87667 108.556 6.53624 108.961C6.05964 109.637 5.65113 110.246 5.24261 110.922L5.03835 111.26C4.8341 111.598 4.56175 111.936 4.42558 112.341C3.81281 113.423 3.26812 114.572 2.79152 115.653C2.79152 115.721 2.72343 115.856 2.65535 115.924C2.65535 115.112 2.65535 114.301 2.65535 113.49V112.003C2.65535 109.502 2.79152 107.136 2.85961 105.041C2.85961 104.23 2.92769 103.554 2.99578 102.81L3.13195 101.188C3.33621 98.5518 3.67664 95.9157 4.15324 93.2795C5.58304 85.3033 7.48944 83.0051 7.48944 83.0051L8.1703 81.5856C14.1619 70.7705 27.6429 62.862 49.3622 57.4544C74.6902 51.1682 107.031 51.033 154.146 57.1165C154.419 57.1165 154.691 57.1841 154.963 57.2517L156.734 57.522C176.479 60.0906 197.109 63.4703 216.99 66.7825C228.837 68.7427 241.092 70.7705 253.007 72.5956L255.322 72.9336C273.297 75.6373 287.731 77.4624 300.871 78.6791C331.714 81.5181 355.749 89.359 372.293 101.999C375.698 104.568 378.285 107.745 380.191 111.53C380.191 111.53 383.664 117.478 384.617 132.957C384.821 135.458 384.889 138.297 384.889 141.812C384.889 142.15 384.889 142.488 384.889 142.894L384.617 142.759Z" fill="#F1F5F9"/>
</g>
<defs>
<clipPath id="clip0_13_208">
<rect width="387" height="272" fill="white"/>
</clipPath>
</defs>
</svg>
