<svg width="166" height="144" viewBox="0 0 166 144" fill="none" xmlns="http://www.w3.org/2000/svg">
<circle cx="83" cy="72" r="72" fill="white"/>
<g clip-path="url(#clip0_156_656)">
<path d="M110.089 56.8835C110.089 56.8835 93.518 23.3541 84.9071 15.596C76.2963 7.83796 65.4826 14.4306 62.846 18.8091C57.2055 28.1987 55.8204 60.6792 55.8204 60.6792L110.072 56.9001L110.089 56.8835Z" fill="#EBE8E2"/>
<path d="M4.75598 87.3329C-1.5186 82.4717 -1.3851 73.0155 4.93954 68.2209C10.7636 63.8091 20.4091 59.4806 36.2457 58.0155C72.4747 54.6859 117.114 41.7503 145.75 48.8424C174.387 55.9345 178.609 82.6215 116.263 98.8868C61.611 113.138 26.717 104.331 4.7393 87.3163L4.75598 87.3329Z" fill="#EBE8E2"/>
<path d="M0.116803 69.0366C0.550683 62.0943 2.10264 59.5305 2.10264 59.5305C2.90365 57.9156 4.08846 56.4506 5.64042 55.2686C11.4144 50.8568 20.9931 46.5283 36.713 45.0633C43.0376 44.4806 49.6125 43.5982 56.321 42.566C70.7392 40.3851 85.7248 37.5716 99.9928 35.7236C116.847 33.5427 132.701 32.7103 145.383 35.8901C154.328 38.121 160.619 41.4173 163.473 46.5949L163.69 47.111C163.69 47.111 164.608 48.0932 165.258 51.8224C165.425 52.788 165.592 53.9367 165.709 55.3019C165.742 55.8513 165.792 56.384 165.826 56.9834C165.876 57.899 165.909 58.9312 165.926 60.03V60.6792C165.926 61.8446 165.909 63.1099 165.859 64.4584C165.859 64.9412 165.826 65.4573 165.792 65.9734C165.525 58.2819 157.799 51.8391 145.75 48.859C134.069 45.9623 119.718 46.4118 104.382 48.1598C90.8145 49.7081 76.4464 52.3052 62.4454 54.5361C53.4674 55.9678 44.6229 57.2497 36.2457 58.0322C20.4091 59.4972 10.7636 63.8257 4.93955 68.2375C1.90238 70.535 0.300372 73.9145 0.150182 77.3274C0.150182 77.1609 0.13349 76.9945 0.116803 76.828C0.0667395 76.1454 0.0500345 75.4961 0.0333468 74.8635C0.0166591 74.1809 -1.8701e-05 73.515 -1.8701e-05 72.899C-1.8701e-05 71.4839 0.033364 70.202 0.116803 69.0366Z" fill="#DE3B3B"/>
<path d="M4.42224 65.374C3.5211 65.4406 2.58659 65.6238 1.65207 65.9567C1.40176 64.9911 1.26826 63.9589 1.26826 62.8768C2.31959 62.6271 3.37091 62.5105 4.35549 62.5438C4.23867 63.5261 4.27205 64.4917 4.42224 65.374Z" fill="white"/>
<path d="M163.339 54.2031C163.456 53.7037 163.54 53.2042 163.59 52.6715C163.656 52.1554 163.69 51.606 163.69 51.0732C164.24 51.1065 164.774 51.1731 165.308 51.273C165.475 52.2386 165.625 53.3873 165.742 54.7525C164.925 54.4861 164.124 54.2863 163.323 54.1865L163.339 54.2031Z" fill="white"/>
<path d="M161.303 45.9789C161.554 47.0611 161.721 48.1765 161.837 49.2253C160.736 49.2919 159.701 49.3918 158.683 49.5916C158.55 48.5594 158.316 47.5605 158.049 46.495C159.084 46.2786 160.185 46.0622 161.303 45.9623V45.9789Z" fill="white"/>
<path d="M161.837 49.2253C160.736 49.2919 159.718 49.3918 158.683 49.5915C159.701 49.3918 160.736 49.2919 161.837 49.2253Z" fill="#FF5E59"/>
<path d="M154.845 42.3663C155.279 43.3818 155.696 44.3641 156.03 45.3962C155.012 45.6959 154.011 46.0788 153.043 46.4617C152.676 45.4961 152.259 44.5305 151.808 43.5649C152.776 43.1321 153.794 42.7325 154.829 42.3663H154.845Z" fill="white"/>
<path d="M156.03 45.3962C155.012 45.6959 154.011 46.0788 153.06 46.4617C154.011 46.0788 155.012 45.6959 156.047 45.3962H156.03Z" fill="#FF5E59"/>
<path d="M148.871 41.4173C149.138 41.8835 149.405 42.3496 149.655 42.8158C149.171 43.0655 148.704 43.2986 148.254 43.5483L146.885 44.3474C146.368 43.4317 145.817 42.566 145.233 41.667C146.134 41.101 147.069 40.535 148.02 40.0355L148.854 41.4173H148.871Z" fill="white"/>
<path d="M148.237 43.5483C148.704 43.2985 149.171 43.0488 149.639 42.8157C149.155 43.0655 148.687 43.2985 148.237 43.5483Z" fill="#FF5E59"/>
<path d="M141.111 38.6204C141.762 39.4695 142.396 40.3518 143.014 41.2009C142.129 41.8002 141.278 42.3996 140.444 43.0322C139.826 42.1998 139.192 41.3674 138.525 40.535C139.359 39.9023 140.227 39.2531 141.111 38.6204Z" fill="white"/>
<path d="M143.014 41.2009C142.129 41.8002 141.278 42.3995 140.444 43.0322C141.278 42.3995 142.129 41.8168 143.014 41.2009Z" fill="#FF5E59"/>
<path d="M134.169 37.8879C134.887 38.6704 135.588 39.4695 136.272 40.2853C135.454 40.9512 134.653 41.6338 133.869 42.333C133.185 41.5505 132.484 40.7514 131.766 39.9689C132.55 39.2531 133.352 38.5705 134.186 37.8713L134.169 37.8879Z" fill="white"/>
<path d="M124.991 39.8857C125.725 39.1199 126.493 38.3874 127.26 37.6382C128.011 38.3874 128.762 39.1199 129.497 39.9023C128.729 40.6182 127.961 41.3674 127.227 42.1165C126.493 41.384 125.742 40.6182 124.991 39.8857Z" fill="white"/>
<path d="M129.497 39.9023C128.729 40.6182 127.978 41.3674 127.227 42.1166C127.978 41.384 128.729 40.6182 129.497 39.9023Z" fill="#FF5E59"/>
<path d="M120.585 42.2497C119.818 41.5338 119.033 40.818 118.249 40.1188C118.95 39.3196 119.668 38.5538 120.402 37.7714C121.186 38.4872 121.971 39.1865 122.738 39.919C122.004 40.6848 121.286 41.4673 120.585 42.2331V42.2497Z" fill="white"/>
<path d="M120.585 42.2497C121.286 41.4839 122.021 40.6848 122.738 39.9356C122.004 40.7014 121.286 41.4839 120.585 42.2497Z" fill="#FF5E59"/>
<path d="M113.927 42.6493C113.126 41.9667 112.325 41.2675 111.507 40.6015C112.192 39.7858 112.876 38.9867 113.577 38.1876C114.394 38.8701 115.195 39.5361 115.98 40.2353C115.279 41.0177 114.595 41.8335 113.91 42.6326L113.927 42.6493Z" fill="white"/>
<path d="M113.927 42.6493C114.611 41.8502 115.295 41.0344 115.996 40.252C115.295 41.0511 114.611 41.8502 113.927 42.6493Z" fill="#FF5E59"/>
<path d="M104.816 41.3008L106.801 38.8369C107.636 39.5028 108.453 40.1521 109.271 40.818C108.604 41.6171 107.936 42.4495 107.269 43.2819L104.799 41.3008H104.816Z" fill="white"/>
<path d="M109.271 40.818C108.604 41.6338 107.936 42.4662 107.269 43.2819C107.936 42.4662 108.587 41.6338 109.271 40.818Z" fill="#FF5E59"/>
<path d="M100.644 44.0644L98.1404 42.1332L100.076 39.636L102.579 41.5672L100.644 44.0644Z" fill="white"/>
<path d="M100.644 44.0644L102.579 41.5671H102.596L100.66 44.0644H100.644Z" fill="#FF5E59"/>
<path d="M94.0185 44.9634L91.482 43.0822L93.3844 40.5516L95.9209 42.4329L94.0185 44.9634Z" fill="white"/>
<path d="M94.0352 44.98L94.0185 44.9634L95.9209 42.4329L95.9376 42.4495L94.0352 44.98Z" fill="#FF5E59"/>
<path d="M86.7273 41.572L89.2773 43.4236L87.4114 45.9811L84.8614 44.1294L86.7273 41.572Z" fill="white"/>
<path d="M87.4103 45.9623L89.2793 43.4151L87.4103 45.9789V45.9623Z" fill="#FF5E59"/>
<path d="M80.7852 47.0277L78.232 45.1798L80.0844 42.616L82.6376 44.4639L80.7852 47.0277Z" fill="white"/>
<path d="M80.7852 47.0277L82.6375 44.4639H82.6542L80.8018 47.0277H80.7852Z" fill="#FF5E59"/>
<path d="M74.1768 48.1099L71.6069 46.2619L73.4593 43.6981L76.0292 45.5461L76.0125 45.5294L74.1768 48.1099Z" fill="white"/>
<path d="M64.9986 47.3441L66.851 44.7803L69.4042 46.6282L67.5518 49.192L64.9986 47.3441Z" fill="white"/>
<path d="M58.3903 48.3929L60.2427 45.8457L62.7959 47.7103V47.6937L60.9269 50.2575H60.9436L58.3903 48.3929Z" fill="white"/>
<path d="M54.2851 51.2564L51.7653 49.3751L53.651 46.8446L56.1875 48.7258H56.1708L54.2851 51.2564Z" fill="white"/>
<path d="M56.1708 48.7258H56.1875L54.3018 51.273V51.2564H54.2851L56.1708 48.7258Z" fill="#FF5E59"/>
<path d="M47.6267 52.1887L45.1403 50.2575L47.0593 47.7603L49.5625 49.6748H49.5458L47.6267 52.1887Z" fill="white"/>
<path d="M49.5458 49.6748H49.5625L47.6434 52.1887H47.6267L49.5458 49.6748Z" fill="#FF5E59"/>
<path d="M40.9516 52.9878L38.4985 50.99L40.4844 48.5427L42.9208 50.5072L40.9516 52.9878Z" fill="white"/>
<path d="M42.9208 50.5072H42.9375L40.9517 52.9878L42.9208 50.5072Z" fill="#FF5E59"/>
<path d="M34.2933 53.6704C33.4756 53.0211 32.6412 52.3884 31.7901 51.7558C32.4243 50.9234 33.0918 50.0744 33.7593 49.2419C34.6104 49.8912 35.4448 50.5571 36.2625 51.2231C35.5783 52.0388 34.9274 52.8712 34.2766 53.687L34.2933 53.6704Z" fill="white"/>
<path d="M27.7516 54.7025C26.8839 54.1032 25.9994 53.5205 25.0983 52.9711C25.6657 52.0721 26.2664 51.1898 26.8839 50.3074C27.785 50.8901 28.6695 51.4728 29.5372 52.0888C28.9198 52.9378 28.319 53.8202 27.735 54.6859L27.7516 54.7025Z" fill="white"/>
<path d="M21.3435 56.2342C20.4424 55.7348 19.4912 55.2187 18.54 54.7692C19.024 53.8036 19.5413 52.8879 20.092 51.9556C21.0432 52.4384 21.9944 52.9712 22.8955 53.4873C22.3448 54.4029 21.8275 55.3019 21.3269 56.2342H21.3435Z" fill="white"/>
<path d="M21.3436 56.2342C21.8275 55.3019 22.3615 54.4029 22.9122 53.4872C22.3615 54.4029 21.8442 55.3019 21.3436 56.2342Z" fill="#FF5E59"/>
<path d="M15.1525 58.4317C14.1846 58.0155 13.2167 57.6659 12.1987 57.3163C12.5659 56.3341 12.9664 55.3019 13.417 54.3196C14.4349 54.6859 15.4362 55.0855 16.4041 55.535C15.9535 56.4839 15.5363 57.4661 15.1525 58.4317Z" fill="white"/>
<path d="M16.4041 55.5349L16.3874 55.5183L16.4041 55.5349Z" fill="#FF5E59"/>
<path d="M9.32839 61.3951C8.31044 61.1288 7.29249 60.929 6.22447 60.7459C6.44141 59.7137 6.67504 58.6315 6.97541 57.5827C8.04343 57.7825 9.11144 58.0489 10.1294 58.3319C9.81233 59.3641 9.52864 60.3629 9.3117 61.3785L9.32839 61.3951Z" fill="white"/>
<path d="M9.32843 61.3951C9.54537 60.3796 9.82905 59.364 10.1461 58.3485C9.82905 59.3807 9.54537 60.3796 9.32843 61.3951Z" fill="#FF5E59"/>
<path d="M121.169 103.815C121.119 104.064 121.069 104.314 121.019 104.564C121.086 104.314 121.119 104.064 121.186 103.815H121.169Z" fill="#ECC19C"/>
<path d="M119.451 109.275C119.417 109.359 119.384 109.442 119.334 109.525C119.367 109.442 119.4 109.359 119.434 109.275H119.451Z" fill="#ECC19C"/>
<path d="M121.503 102.216C121.42 102.749 121.286 103.282 121.169 103.815C121.286 103.282 121.403 102.766 121.503 102.216Z" fill="#9C7761"/>
<path d="M47.7435 105.862C47.7435 105.862 47.7602 105.862 47.7769 105.862C47.8103 105.979 47.827 106.112 47.8604 106.229C47.827 106.095 47.7769 105.979 47.7435 105.846V105.862Z" fill="#9C7761"/>
<path d="M116.881 104.131C118.516 103.548 120.085 102.916 121.503 102.216C121.42 102.749 121.286 103.282 121.169 103.815C121.119 104.064 121.069 104.314 121.003 104.564C119.634 104.664 118.232 104.547 116.881 104.131Z" fill="#9C7761"/>
<path d="M88.061 112.305C89.7465 111.772 91.9493 110.774 94.0853 108.909C95.2868 110.041 96.7219 111.023 98.374 111.639C96.3715 111.889 94.2522 112.072 92.0494 112.189C90.681 112.255 89.3627 112.289 88.0777 112.305H88.061Z" fill="#9C7761"/>
<path d="M61.5609 109.775C65.7829 112.788 71.2231 113.67 75.8456 113.754C77.9316 119.231 85.4077 124.475 93.6347 123.892C102.946 123.243 109.738 115.302 109.538 109.192C109.388 109.259 109.221 109.309 109.054 109.358C109.521 108.892 109.922 108.343 110.256 107.777C112.225 108.992 113.827 109.042 113.827 109.042C113.827 109.042 116.38 109.592 119.467 109.275C119.434 109.358 119.401 109.442 119.367 109.525C119.15 110.024 118.95 110.524 118.716 111.007C118.483 111.489 118.232 111.956 117.982 112.422C117.732 112.888 117.465 113.371 117.181 113.837C116.914 114.286 116.63 114.736 116.33 115.169C116.03 115.635 115.713 116.084 115.379 116.517C115.078 116.933 114.761 117.35 114.428 117.749C114.06 118.199 113.677 118.648 113.293 119.081C112.959 119.447 112.642 119.814 112.308 120.18C111.841 120.663 111.34 121.129 110.84 121.595C110.539 121.878 110.256 122.161 109.955 122.427C109.154 123.127 108.32 123.792 107.435 124.425C107.152 124.625 106.851 124.808 106.568 125.008C105.934 125.441 105.316 125.873 104.649 126.256C104.281 126.489 103.881 126.689 103.497 126.906C102.896 127.239 102.296 127.572 101.661 127.871C101.244 128.071 100.827 128.271 100.393 128.454C99.7758 128.737 99.1416 129.003 98.4908 129.253C98.0569 129.42 97.6231 129.586 97.1725 129.736C96.505 129.969 95.8208 130.169 95.1199 130.368C94.686 130.485 94.2521 130.618 93.8183 130.735C93.0506 130.918 92.2663 131.084 91.482 131.234C91.0982 131.301 90.731 131.401 90.3305 131.451C89.1457 131.634 87.9609 131.784 86.7427 131.867C85.5078 131.95 84.2896 131.967 83.0881 131.95C82.6876 131.95 82.2871 131.9 81.8866 131.883C81.0855 131.85 80.2845 131.8 79.5002 131.717C79.033 131.667 78.5657 131.584 78.1151 131.517C77.4142 131.417 76.7134 131.317 76.0125 131.168C75.5285 131.068 75.0446 130.951 74.5773 130.851C73.9265 130.701 73.2757 130.535 72.6416 130.352C72.1576 130.219 71.6737 130.052 71.2064 129.902C70.589 129.703 69.9882 129.469 69.3875 129.253C68.9202 129.07 68.4529 128.887 67.9857 128.687C67.4016 128.437 66.8342 128.154 66.2835 127.888C65.833 127.671 65.3824 127.438 64.9485 127.205C64.3978 126.906 63.8638 126.573 63.3298 126.256C62.9126 126.007 62.4787 125.757 62.0615 125.474C61.5275 125.108 61.0102 124.725 60.4929 124.342C60.1258 124.059 59.742 123.809 59.3915 123.526C58.5738 122.86 57.7895 122.178 57.0385 121.462C56.638 121.079 56.2876 120.679 55.9038 120.28C55.5366 119.897 55.1528 119.514 54.8024 119.114C54.4186 118.681 54.0848 118.215 53.7344 117.766C53.4173 117.366 53.1169 116.983 52.8166 116.567C52.4828 116.084 52.1657 115.602 51.8487 115.102C51.5817 114.686 51.3147 114.27 51.081 113.853C50.7807 113.337 50.5136 112.821 50.2466 112.289C50.0297 111.856 49.8128 111.423 49.6125 110.973C49.3622 110.424 49.1286 109.891 48.9116 109.325C48.7281 108.876 48.5779 108.41 48.4277 107.96C48.2274 107.394 48.0439 106.811 47.877 106.229C47.8436 106.112 47.8269 105.979 47.7935 105.862C51.2813 107.394 55.6701 108.426 60.6932 109.059C60.9935 109.292 61.2605 109.542 61.5943 109.775H61.5609Z" fill="#9C7761"/>
<path d="M81.7363 77.2275C89.396 76.6948 96.0043 81.9723 96.505 89.0311C97.0056 96.0899 91.1983 102.233 83.5386 102.766C88.7285 101.9 92.5333 97.5882 92.1828 92.6437C91.8157 87.3496 86.8595 83.3873 81.1189 83.7869C75.3783 84.1865 71.0228 88.798 71.3899 94.0921C71.5735 96.7225 72.9085 99.0366 74.8944 100.635C71.4567 98.5205 69.0704 95.0577 68.7867 90.9623C68.286 83.9034 74.0934 77.7603 81.753 77.2275H81.7363Z" fill="white"/>
<path d="M71.3733 94.0921C71.0062 88.798 75.3617 84.1865 81.1023 83.7869C86.8428 83.3873 91.7991 87.3496 92.1662 92.6437C92.5167 97.5882 88.7119 101.9 83.522 102.766C80.3179 102.982 77.3475 102.15 74.8778 100.635C72.8752 99.0366 71.5569 96.7225 71.3733 94.0921ZM81.1857 101.501C84.6234 101.267 87.2433 98.4872 87.0264 95.3241C86.8095 92.1609 83.8391 89.7802 80.3847 90.0133C76.947 90.2464 74.3271 93.0266 74.544 96.1898C74.7609 99.3529 77.7314 101.734 81.1857 101.501Z" fill="#9C7761"/>
<path d="M80.368 90.0134C83.8057 89.7803 86.7761 92.1443 87.0097 95.3241C87.2266 98.4873 84.6234 101.268 81.169 101.501C77.7313 101.734 74.7609 99.3696 74.5273 96.1898C74.2937 93.01 76.9136 90.2464 80.368 90.0134ZM79.7839 95.4739C80.8853 95.3907 81.7197 94.5084 81.653 93.4928C81.5862 92.4773 80.635 91.7281 79.5336 91.7947C78.4322 91.8613 77.5978 92.7603 77.6646 93.7758C77.7313 94.7914 78.6825 95.5405 79.7839 95.4739Z" fill="#212121"/>
<path d="M79.5335 91.8113C80.6349 91.7281 81.5861 92.4939 81.6529 93.5094C81.7196 94.525 80.8852 95.4073 79.7839 95.4906C78.6825 95.5738 77.7313 94.808 77.6645 93.7924C77.5978 92.7769 78.4321 91.8945 79.5335 91.8113Z" fill="white"/>
<path d="M108.937 80.0744C112.375 79.8413 115.496 81.1399 117.615 83.3208C119.15 84.8857 120.168 86.9001 120.318 89.1809C120.535 92.3774 119.05 95.3075 116.614 97.2886C114.911 98.6704 112.742 99.6027 110.322 99.7692C112.408 99.4196 114.194 98.3541 115.395 96.8557C116.497 95.4906 117.114 93.7925 116.997 91.9612C116.897 90.4295 116.28 89.0477 115.329 87.9323C113.743 86.0677 111.223 84.9523 108.453 85.1521C104.031 85.4684 100.677 89.0144 100.961 93.0932C101.027 94.0588 101.311 94.9745 101.745 95.7903C101.428 95.7237 101.144 95.6571 100.86 95.5905C99.7924 94.1754 99.0915 92.5272 98.9747 90.6793C98.5909 85.2353 103.063 80.5072 108.971 80.091L108.937 80.0744Z" fill="white"/>
<path d="M108.17 98.7703C108.286 98.7703 108.387 98.7703 108.503 98.7703C111.157 98.5871 113.176 96.4562 112.992 94.0089C112.826 91.5616 110.523 89.7303 107.869 89.9134C105.216 90.0966 103.197 92.2275 103.38 94.6748C103.43 95.3074 103.614 95.8901 103.914 96.4229C103.147 96.1398 102.412 95.9234 101.712 95.7569C101.278 94.9412 101.011 94.0255 100.927 93.0599C100.643 88.9811 103.998 85.4351 108.42 85.1188C111.19 84.919 113.71 86.0511 115.295 87.899C116.247 89.0144 116.847 90.3962 116.964 91.9279C117.098 93.7425 116.463 95.4406 115.362 96.8224C114.161 98.3208 112.375 99.3862 110.289 99.7359C109.922 99.7691 109.571 99.7358 109.204 99.7192C108.871 99.3696 108.52 99.0533 108.153 98.7536L108.17 98.7703Z" fill="#9C7761"/>
<path d="M107.886 89.9301C110.539 89.747 112.826 91.5783 113.009 94.0255C113.176 96.4728 111.173 98.6038 108.52 98.7869C108.403 98.7869 108.303 98.7869 108.186 98.7869C106.885 97.7214 105.383 96.9723 103.931 96.4562C103.631 95.9234 103.447 95.3408 103.397 94.7081C103.23 92.2608 105.233 90.1299 107.886 89.9467V89.9301ZM107.435 94.1421C108.286 94.0755 108.921 93.4096 108.871 92.6271C108.82 91.8446 108.086 91.262 107.235 91.3119C106.384 91.3785 105.75 92.0444 105.8 92.8269C105.85 93.6093 106.584 94.192 107.435 94.1421Z" fill="#212121"/>
<path d="M107.235 91.3119C108.086 91.2453 108.82 91.8446 108.871 92.6271C108.921 93.4095 108.286 94.0921 107.435 94.1421C106.584 94.2087 105.85 93.6093 105.8 92.8269C105.75 92.0444 106.384 91.3618 107.235 91.3119Z" fill="white"/>
<path d="M93.6347 123.892C85.4077 124.458 77.9316 119.231 75.8456 113.754C81.1189 113.854 85.3076 112.905 85.3076 112.905C85.3076 112.905 86.4423 112.805 88.061 112.305C89.346 112.305 90.681 112.255 92.0327 112.189C94.2522 112.072 96.3715 111.889 98.3573 111.639C99.8426 112.189 101.495 112.455 103.347 112.205C105.299 111.956 107.469 110.923 109.037 109.358C109.188 109.309 109.371 109.242 109.521 109.192C109.722 115.302 102.946 123.243 93.618 123.892H93.6347Z" fill="white"/>
<path d="M116.847 79.192C116.931 79.3086 116.914 79.475 116.814 79.5749C116.413 78.9423 115.98 78.3097 115.546 77.7103C116.03 78.1931 116.48 78.6759 116.864 79.192H116.847Z" fill="#212121"/>
<path d="M116.447 79.5916C115.345 78.7259 114.211 77.9434 113.076 77.2775C111.791 76.545 110.623 76.0455 109.505 75.7292C108.22 75.3629 106.985 75.2631 105.8 75.4295C104.649 75.5794 103.464 76.0289 102.179 76.7947C102.062 76.8613 101.895 76.8446 101.795 76.7281C101.712 76.6116 101.712 76.4451 101.795 76.3452C102.88 75.2131 104.198 74.4306 105.583 74.0977C106.267 73.9312 107.002 73.848 107.736 73.8813C108.403 73.9146 109.104 74.0311 109.855 74.2142C111.19 74.6138 112.492 75.2464 113.693 76.1121C114.378 76.5949 114.978 77.1277 115.546 77.6937C115.996 78.3097 116.413 78.9257 116.814 79.5583C116.764 79.6082 116.697 79.6249 116.63 79.6415C116.564 79.6415 116.497 79.6415 116.43 79.5749L116.447 79.5916Z" fill="#212121"/>
<path d="M84.4398 72.4495C82.771 72.2997 81.0021 72.4828 79.1831 72.9656C77.6145 73.3818 75.9791 74.0311 74.1601 74.9634C72.5748 75.7958 70.9728 76.7614 69.4375 77.8435C69.3874 77.8768 69.3374 77.8935 69.2873 77.8935C69.2039 77.8935 69.1204 77.8602 69.0537 77.7936C68.9536 77.6937 68.9536 77.5272 69.0537 77.4107C70.2051 76.0622 71.6737 74.7969 73.4259 73.6815C75.0946 72.616 76.8802 71.8169 78.7492 71.2841C79.7505 71.0344 80.7184 70.8679 81.6529 70.8013H81.6696C82.6875 70.7347 83.6888 70.8013 84.64 70.9678C86.5758 71.3008 88.3947 72.1498 89.93 73.4484C90.0468 73.5483 90.0635 73.6981 89.9801 73.8313C89.8966 73.9478 89.7464 73.9978 89.6129 73.9312C87.7773 73.0655 86.0918 72.566 84.4398 72.4495Z" fill="#212121"/>
<path d="M50.9476 81.6892C50.9476 81.6892 50.9976 81.5394 51.031 81.4395C51.031 81.4728 51.031 81.4895 51.031 81.5061C50.9976 81.5561 50.9642 81.6226 50.9309 81.6726L50.9476 81.6892Z" fill="#212121"/>
<path d="M65.9331 68.9534L64.4812 78.859C64.4645 78.9589 64.4312 79.0588 64.3811 79.1421L60.376 85.485C60.3093 85.6015 60.2592 85.7514 60.2592 85.8846L59.4248 94.5416C59.3915 94.9745 58.9075 95.141 58.5905 94.9412H58.5571C54.3852 84.919 50.8307 82.0555 50.8307 82.0555C50.864 81.9723 50.9141 81.8058 50.9642 81.7059C50.9975 81.6559 51.0309 81.5893 51.0643 81.5394C51.0643 81.5061 51.0643 81.4895 51.0643 81.4728C51.9654 79.0921 55.3363 71.9334 64.4812 67.8213C64.6982 67.7214 64.9151 67.7214 65.1154 67.7547C65.6494 67.8546 66.0832 68.3707 65.9497 68.97L65.9331 68.9534Z" fill="#212121"/>
<path d="M85.3076 112.905C85.3076 112.905 81.1189 113.837 75.8456 113.754C71.2231 113.67 65.7829 112.805 61.5609 109.775C61.2272 109.542 60.9602 109.292 60.6598 109.059C56.6381 105.779 56.5546 102.616 57.6393 100.352C57.923 99.7691 58.2735 99.2364 58.674 98.7869C59.5084 97.788 60.4762 97.1221 61.0603 96.9556C62.9961 96.3896 65.5326 96.5394 66.6006 99.9689C67.0512 101.434 66.8509 102.366 66.4504 102.966C66.1 103.482 65.2322 103.265 65.2156 102.649C65.1989 101.7 64.8651 100.535 63.3799 100.452C60.8434 100.302 59.8421 105.313 64.7483 106.778C70.3554 108.459 77.9983 108.193 83.4218 105.013C85.658 103.698 87.7106 102.966 89.5129 102.633C90.0302 103.681 91.482 106.445 93.885 108.759C93.9351 108.809 94.0019 108.859 94.0686 108.926C91.9493 110.79 89.7298 111.789 88.0443 112.322C86.4256 112.821 85.2909 112.921 85.2909 112.921L85.3076 112.905Z" fill="#212121"/>
<path d="M119.451 109.275C116.363 109.608 113.81 109.042 113.81 109.042C113.81 109.042 112.208 108.992 110.239 107.777C110.589 107.194 110.873 106.578 111.023 105.912C111.023 105.912 111.023 105.896 111.023 105.879C111.457 103.898 111.19 102.716 110.74 101.85C110.639 101.667 110.523 101.501 110.423 101.317C111.507 101.484 112.792 101.967 114.211 102.916C115.045 103.465 115.929 103.865 116.864 104.131C118.216 104.531 119.634 104.664 120.986 104.564" fill="#212121"/>
<path d="M121.003 104.564C122.471 104.447 123.89 104.081 125.091 103.482C127.794 102.15 126.793 98.3541 125.341 98.5705C124.507 98.7037 124.407 99.6027 124.474 100.335C124.524 100.801 124.04 101.018 123.789 100.618C123.522 100.185 123.322 99.4695 123.456 98.3208C123.773 95.6404 125.225 95.424 126.376 95.7736C127.544 96.1232 131.666 100.452 127.16 105.629C125.024 108.077 122.037 108.992 119.417 109.275" fill="#212121"/>
<path d="M41.5691 76.4118C49.5792 74.8968 50.8307 79.6915 51.031 81.4395C50.9976 81.5394 50.9642 81.606 50.9475 81.6892C50.9142 81.8058 50.8474 81.9723 50.814 82.0389C50.814 82.0389 54.3852 84.9023 58.5405 94.9245H58.5738C58.8909 95.1243 59.3581 94.9578 59.4082 94.525L60.2426 85.8679C60.2426 85.7347 60.2927 85.5849 60.3594 85.4684L64.3645 79.1254C64.4145 79.0422 64.4479 78.9423 64.4646 78.8424L65.9164 68.9368C66.0332 68.3208 65.616 67.8213 65.082 67.7214C70.0383 64.9578 75.7288 63.1598 81.8699 62.727C95.7374 61.7614 108.303 67.8546 115.529 77.6937C114.962 77.1443 114.361 76.6116 113.677 76.1121C112.475 75.2464 111.19 74.5971 109.838 74.2142C109.104 74.0144 108.403 73.9145 107.719 73.8813C106.985 73.848 106.267 73.9312 105.566 74.0977C104.181 74.4306 102.88 75.1965 101.778 76.3452C101.678 76.4451 101.678 76.6116 101.778 76.7281C101.862 76.8446 102.029 76.8613 102.162 76.7947C103.447 76.0289 104.632 75.5794 105.783 75.4295C106.951 75.263 108.203 75.3629 109.488 75.7292C110.589 76.0455 111.758 76.545 113.059 77.2775C114.194 77.9434 115.329 78.7092 116.43 79.5916C116.48 79.6415 116.564 79.6582 116.63 79.6582C116.697 79.6582 116.747 79.6249 116.814 79.5749C117.265 80.2741 117.698 80.99 118.099 81.7225C118.132 80.2409 118.816 76.9279 124.64 77.2109C131.466 77.5272 130.748 92.6604 121.904 96.5061C121.937 98.4373 121.804 100.352 121.503 102.216C120.101 102.916 118.533 103.548 116.881 104.131C115.963 103.848 115.062 103.448 114.227 102.916C112.792 101.983 111.507 101.484 110.439 101.317C110.539 101.501 110.673 101.65 110.756 101.85C111.207 102.716 111.474 103.898 111.04 105.879C111.04 105.879 111.04 105.896 111.04 105.912C110.89 106.578 110.606 107.194 110.256 107.777C109.922 108.343 109.521 108.876 109.054 109.358C107.485 110.94 105.299 111.956 103.364 112.205C101.511 112.455 99.8592 112.205 98.374 111.639C96.7052 111.023 95.2868 110.024 94.0853 108.909L93.9017 108.743C91.4987 106.428 90.0468 103.665 89.5295 102.616C87.7273 102.949 85.6747 103.698 83.4385 104.997C78.015 108.176 70.3887 108.443 64.765 106.761C59.8588 105.296 60.86 100.285 63.3966 100.435C64.8651 100.518 65.1988 101.684 65.2322 102.633C65.2322 103.249 66.1167 103.465 66.4671 102.949C66.8509 102.366 67.0679 101.417 66.6173 99.9523C65.5493 96.5228 63.0294 96.3729 61.077 96.939C60.4929 97.1054 59.5417 97.7714 58.6906 98.7703C58.3068 99.2198 57.9397 99.7525 57.656 100.335C56.5713 102.599 56.6547 105.762 60.6765 109.042C55.6702 108.41 51.2646 107.377 47.7769 105.846C47.3263 104.148 47.0092 102.383 46.8424 100.585C36.0454 95.7902 33.1584 77.9934 41.5857 76.3951L41.5691 76.4118ZM100.827 95.5738C101.111 95.6238 101.411 95.6904 101.712 95.7736C102.396 95.9401 103.147 96.1565 103.914 96.4395C105.366 96.9556 106.851 97.7214 108.17 98.7703C108.537 99.0699 108.887 99.3862 109.221 99.7359C109.588 99.7359 109.939 99.7858 110.306 99.7525C112.742 99.586 114.895 98.6537 116.597 97.2719C119.033 95.2908 120.519 92.3607 120.302 89.1643C120.135 86.8835 119.117 84.8857 117.598 83.3041C115.479 81.1232 112.358 79.8247 108.921 80.0577C103.013 80.4739 98.5409 85.2187 98.9247 90.646C99.0582 92.4939 99.7591 94.1587 100.81 95.5572L100.827 95.5738ZM89.9133 73.4484C88.3781 72.1498 86.5591 71.3008 84.6233 70.9678C83.6721 70.8013 82.6709 70.7348 81.6529 70.8013C81.6529 70.8013 81.6529 70.8013 81.6362 70.8013C80.7017 70.8679 79.7338 71.0178 78.7326 71.2841C76.8636 71.8002 75.078 72.5993 73.4092 73.6815C71.657 74.8136 70.1885 76.0622 69.037 77.4107C68.9369 77.5272 68.9536 77.677 69.037 77.7936C69.1038 77.8602 69.1872 77.8935 69.2707 77.8935C69.3207 77.8935 69.3708 77.8768 69.4208 77.8435C70.9728 76.7614 72.5581 75.7958 74.1435 74.9634C75.9624 74.0311 77.5978 73.3818 79.1665 72.9656C80.9854 72.4828 82.7543 72.2997 84.4231 72.4495C86.0752 72.5827 87.7606 73.0655 89.5963 73.9312C89.7298 73.9978 89.88 73.9478 89.9634 73.8313C90.0468 73.7148 90.0135 73.5483 89.9133 73.4484ZM74.861 100.635C77.3308 102.15 80.3012 102.982 83.5053 102.766C91.1649 102.233 96.9722 96.0733 96.4716 89.0311C95.971 81.9723 89.3626 76.6948 81.703 77.2275C74.0433 77.7603 68.236 83.9201 68.7366 90.9623C69.0203 95.0577 71.4234 98.5205 74.8443 100.635H74.861Z" fill="#ECC19C"/>
</g>
<defs>
<clipPath id="clip0_156_656">
<rect width="165.926" height="120" fill="white" transform="matrix(-1 0 0 1 165.926 12)"/>
</clipPath>
</defs>
</svg>
